<?xml version="1.0" encoding="utf-8" standalone="no"?>
<!DOCTYPE svg PUBLIC "-//W3C//DTD SVG 1.1//EN"
  "http://www.w3.org/Graphics/SVG/1.1/DTD/svg11.dtd">
<svg xmlns:xlink="http://www.w3.org/1999/xlink" width="526.243944pt" height="617.882925pt" viewBox="0 0 526.243944 617.882925" xmlns="http://www.w3.org/2000/svg" version="1.1">
 <metadata>
  <rdf:RDF xmlns:dc="http://purl.org/dc/elements/1.1/" xmlns:cc="http://creativecommons.org/ns#" xmlns:rdf="http://www.w3.org/1999/02/22-rdf-syntax-ns#">
   <cc:Work>
    <dc:type rdf:resource="http://purl.org/dc/dcmitype/StillImage"/>
    <dc:date>2026-06-12T20:22:17.490325</dc:date>
    <dc:format>image/svg+xml</dc:format>
    <dc:creator>
     <cc:Agent>
      <dc:title>Matplotlib v3.10.9, https://matplotlib.org/</dc:title>
     </cc:Agent>
    </dc:creator>
   </cc:Work>
  </rdf:RDF>
 </metadata>
 <defs>
  <style type="text/css">*{stroke-linejoin: round; stroke-linecap: butt}</style>
 </defs>
 <g id="figure_1">
  <g id="patch_1">
   <path d="M 0 617.882925 
L 526.243944 617.882925 
L 526.243944 0 
L 0 0 
z
" style="fill: #0d1117"/>
  </g>
  <g id="axes_1">
   <g id="patch_2">
    <path d="M 263.121972 464.272773 
C 312.304073 464.272773 359.478425 444.732517 394.255422 409.955519 
C 429.03242 375.178522 448.572676 328.00417 448.572676 278.822069 
C 448.572676 229.639967 429.03242 182.465616 394.255422 147.688618 
C 359.478425 112.911621 312.304073 93.371364 263.121972 93.371364 
C 213.93987 93.371364 166.765519 112.911621 131.988521 147.688618 
C 97.211524 182.465616 77.671268 229.639967 77.671268 278.822069 
C 77.671268 328.00417 97.211524 375.178522 131.988521 409.955519 
C 166.765519 444.732517 213.93987 464.272773 263.121972 464.272773 
L 263.121972 464.272773 
z
" clip-path="url(#p6e1b64ce36)" style="fill: none; stroke: #2b3340; stroke-linejoin: miter"/>
   </g>
   <g id="patch_3">
    <path d="M 263.121972 402.455871 
C 295.91004 402.455871 327.359607 389.429034 350.544272 366.244369 
C 373.728937 343.059704 386.755775 311.610136 386.755775 278.822069 
C 386.755775 246.034001 373.728937 214.584433 350.544272 191.399768 
C 327.359607 168.215103 295.91004 155.188266 263.121972 155.188266 
C 230.333904 155.188266 198.884337 168.215103 175.699671 191.399768 
C 152.515006 214.584433 139.488169 246.034001 139.488169 278.822069 
C 139.488169 311.610136 152.515006 343.059704 175.699671 366.244369 
C 198.884337 389.429034 230.333904 402.455871 263.121972 402.455871 
L 263.121972 402.455871 
z
" clip-path="url(#p6e1b64ce36)" style="fill: none; stroke: #2b3340; stroke-linejoin: miter"/>
   </g>
   <g id="patch_4">
    <path d="M 263.121972 340.63897 
C 279.516006 340.63897 295.240789 334.125551 306.833122 322.533219 
C 318.425455 310.940886 324.938873 295.216103 324.938873 278.822069 
C 324.938873 262.428035 318.425455 246.703251 306.833122 235.110918 
C 295.240789 223.518586 279.516006 217.005167 263.121972 217.005167 
C 246.727938 217.005167 231.003154 223.518586 219.410822 235.110918 
C 207.818489 246.703251 201.30507 262.428035 201.30507 278.822069 
C 201.30507 295.216103 207.818489 310.940886 219.410822 322.533219 
C 231.003154 334.125551 246.727938 340.63897 263.121972 340.63897 
L 263.121972 340.63897 
z
" clip-path="url(#p6e1b64ce36)" style="fill: none; stroke: #2b3340; stroke-linejoin: miter"/>
   </g>
   <g id="line2d_1">
    <path d="M 263.121972 278.822069 
L 263.121972 93.371364 
" clip-path="url(#p6e1b64ce36)" style="fill: none; stroke: #2b3340; stroke-width: 0.6; stroke-linecap: square"/>
   </g>
   <g id="line2d_2">
    <path d="M 263.121972 278.822069 
L 355.847324 118.217048 
" clip-path="url(#p6e1b64ce36)" style="fill: none; stroke: #2b3340; stroke-width: 0.6; stroke-linecap: square"/>
   </g>
   <g id="line2d_3">
    <path d="M 263.121972 278.822069 
L 423.726993 186.096717 
" clip-path="url(#p6e1b64ce36)" style="fill: none; stroke: #2b3340; stroke-width: 0.6; stroke-linecap: square"/>
   </g>
   <g id="line2d_4">
    <path d="M 263.121972 278.822069 
L 448.572676 278.822069 
" clip-path="url(#p6e1b64ce36)" style="fill: none; stroke: #2b3340; stroke-width: 0.6; stroke-linecap: square"/>
   </g>
   <g id="line2d_5">
    <path d="M 263.121972 278.822069 
L 423.726993 371.547421 
" clip-path="url(#p6e1b64ce36)" style="fill: none; stroke: #2b3340; stroke-width: 0.6; stroke-linecap: square"/>
   </g>
   <g id="line2d_6">
    <path d="M 263.121972 278.822069 
L 355.847324 439.42709 
" clip-path="url(#p6e1b64ce36)" style="fill: none; stroke: #2b3340; stroke-width: 0.6; stroke-linecap: square"/>
   </g>
   <g id="line2d_7">
    <path d="M 263.121972 278.822069 
L 263.121972 464.272773 
" clip-path="url(#p6e1b64ce36)" style="fill: none; stroke: #2b3340; stroke-width: 0.6; stroke-linecap: square"/>
   </g>
   <g id="line2d_8">
    <path d="M 263.121972 278.822069 
L 170.39662 439.42709 
" clip-path="url(#p6e1b64ce36)" style="fill: none; stroke: #2b3340; stroke-width: 0.6; stroke-linecap: square"/>
   </g>
   <g id="line2d_9">
    <path d="M 263.121972 278.822069 
L 102.516951 371.547421 
" clip-path="url(#p6e1b64ce36)" style="fill: none; stroke: #2b3340; stroke-width: 0.6; stroke-linecap: square"/>
   </g>
   <g id="line2d_10">
    <path d="M 263.121972 278.822069 
L 77.671268 278.822069 
" clip-path="url(#p6e1b64ce36)" style="fill: none; stroke: #2b3340; stroke-width: 0.6; stroke-linecap: square"/>
   </g>
   <g id="line2d_11">
    <path d="M 263.121972 278.822069 
L 102.516951 186.096717 
" clip-path="url(#p6e1b64ce36)" style="fill: none; stroke: #2b3340; stroke-width: 0.6; stroke-linecap: square"/>
   </g>
   <g id="line2d_12">
    <path d="M 263.121972 278.822069 
L 170.39662 118.217048 
" clip-path="url(#p6e1b64ce36)" style="fill: none; stroke: #2b3340; stroke-width: 0.6; stroke-linecap: square"/>
   </g>
   <g id="text_1">
    <!--  30° -->
    <g style="fill: #5b6675" transform="translate(263.121972 153.732485) scale(0.07 -0.07)">
     <defs>
      <path id="DejaVuSans-20" transform="scale(0.015625)"/>
      <path id="DejaVuSans-33" d="M 2597 2516 
Q 3050 2419 3304 2112 
Q 3559 1806 3559 1356 
Q 3559 666 3084 287 
Q 2609 -91 1734 -91 
Q 1441 -91 1130 -33 
Q 819 25 488 141 
L 488 750 
Q 750 597 1062 519 
Q 1375 441 1716 441 
Q 2309 441 2620 675 
Q 2931 909 2931 1356 
Q 2931 1769 2642 2001 
Q 2353 2234 1838 2234 
L 1294 2234 
L 1294 2753 
L 1863 2753 
Q 2328 2753 2575 2939 
Q 2822 3125 2822 3475 
Q 2822 3834 2567 4026 
Q 2313 4219 1838 4219 
Q 1578 4219 1281 4162 
Q 984 4106 628 3988 
L 628 4550 
Q 988 4650 1302 4700 
Q 1616 4750 1894 4750 
Q 2613 4750 3031 4423 
Q 3450 4097 3450 3541 
Q 3450 3153 3228 2886 
Q 3006 2619 2597 2516 
z
" transform="scale(0.015625)"/>
      <path id="DejaVuSans-30" d="M 2034 4250 
Q 1547 4250 1301 3770 
Q 1056 3291 1056 2328 
Q 1056 1369 1301 889 
Q 1547 409 2034 409 
Q 2525 409 2770 889 
Q 3016 1369 3016 2328 
Q 3016 3291 2770 3770 
Q 2525 4250 2034 4250 
z
M 2034 4750 
Q 2819 4750 3233 4129 
Q 3647 3509 3647 2328 
Q 3647 1150 3233 529 
Q 2819 -91 2034 -91 
Q 1250 -91 836 529 
Q 422 1150 422 2328 
Q 422 3509 836 4129 
Q 1250 4750 2034 4750 
z
" transform="scale(0.015625)"/>
      <path id="DejaVuSans-b0" d="M 1600 4347 
Q 1350 4347 1178 4173 
Q 1006 4000 1006 3750 
Q 1006 3503 1178 3333 
Q 1350 3163 1600 3163 
Q 1850 3163 2022 3333 
Q 2194 3503 2194 3750 
Q 2194 3997 2020 4172 
Q 1847 4347 1600 4347 
z
M 1600 4750 
Q 1800 4750 1984 4673 
Q 2169 4597 2303 4453 
Q 2447 4313 2519 4134 
Q 2591 3956 2591 3750 
Q 2591 3338 2302 3052 
Q 2013 2766 1594 2766 
Q 1172 2766 890 3047 
Q 609 3328 609 3750 
Q 609 4169 896 4459 
Q 1184 4750 1600 4750 
z
" transform="scale(0.015625)"/>
     </defs>
     <use xlink:href="#DejaVuSans-20"/>
     <use xlink:href="#DejaVuSans-33" transform="translate(31.787109 0)"/>
     <use xlink:href="#DejaVuSans-30" transform="translate(95.410156 0)"/>
     <use xlink:href="#DejaVuSans-b0" transform="translate(159.033203 0)"/>
    </g>
   </g>
   <g id="text_2">
    <!--  60° -->
    <g style="fill: #5b6675" transform="translate(263.121972 215.549386) scale(0.07 -0.07)">
     <defs>
      <path id="DejaVuSans-36" d="M 2113 2584 
Q 1688 2584 1439 2293 
Q 1191 2003 1191 1497 
Q 1191 994 1439 701 
Q 1688 409 2113 409 
Q 2538 409 2786 701 
Q 3034 994 3034 1497 
Q 3034 2003 2786 2293 
Q 2538 2584 2113 2584 
z
M 3366 4563 
L 3366 3988 
Q 3128 4100 2886 4159 
Q 2644 4219 2406 4219 
Q 1781 4219 1451 3797 
Q 1122 3375 1075 2522 
Q 1259 2794 1537 2939 
Q 1816 3084 2150 3084 
Q 2853 3084 3261 2657 
Q 3669 2231 3669 1497 
Q 3669 778 3244 343 
Q 2819 -91 2113 -91 
Q 1303 -91 875 529 
Q 447 1150 447 2328 
Q 447 3434 972 4092 
Q 1497 4750 2381 4750 
Q 2619 4750 2861 4703 
Q 3103 4656 3366 4563 
z
" transform="scale(0.015625)"/>
     </defs>
     <use xlink:href="#DejaVuSans-20"/>
     <use xlink:href="#DejaVuSans-36" transform="translate(31.787109 0)"/>
     <use xlink:href="#DejaVuSans-30" transform="translate(95.410156 0)"/>
     <use xlink:href="#DejaVuSans-b0" transform="translate(159.033203 0)"/>
    </g>
   </g>
   <g id="line2d_13">
    <path d="M 263.121972 278.822069 
" clip-path="url(#p6e1b64ce36)" style="fill: none; stroke: #5b6675; stroke-width: 1.5; stroke-linecap: square"/>
    <defs>
     <path id="m943c967217" d="M -4 0 
L 4 0 
M 0 4 
L 0 -4 
" style="stroke: #5b6675"/>
    </defs>
    <g clip-path="url(#p6e1b64ce36)">
     <use xlink:href="#m943c967217" x="263.121972" y="278.822069" style="fill: #5b6675; stroke: #5b6675"/>
    </g>
   </g>
   <g id="line2d_14">
    <path d="M 136.973015 175.93749 
L 128.640256 178.582487 
L 120.305052 181.398971 
L 112.1417 184.479124 
L 103.823516 187.959834 
L 424.466372 188.649731 
L 416.313061 185.313828 
L 407.979832 182.213885 
L 399.64495 179.267801 
L 391.30762 176.49281 
L 382.967784 173.904991 
L 374.477564 171.662188 
L 366.142224 169.499633 
L 357.808364 167.565934 
L 349.28072 165.722545 
L 340.753574 164.160671 
L 332.230811 162.890913 
L 323.906132 161.557537 
L 315.258944 160.611728 
L 306.950915 159.698488 
L 298.377989 159.032398 
L 289.836626 158.320053 
L 281.393906 158.004534 
L 272.872015 157.640431 
L 264.179289 157.665555 
L 255.712683 157.68126 
L 247.199688 157.880318 
L 238.807029 158.233389 
L 230.280852 158.775154 
L 221.790249 159.463176 
L 213.088743 160.376828 
L 204.760098 161.252835 
L 196.253492 162.534219 
L 187.664508 163.949058 
L 179.163573 165.358805 
L 170.786259 167.207365 
L 162.334189 168.831505 
L 153.81745 171.033169 
L 145.487096 173.274331 
L 137.152775 175.717476 
" clip-path="url(#p6e1b64ce36)" style="fill: none; stroke: #ffb02e; stroke-opacity: 0.3; stroke-width: 1.2; stroke-linecap: square"/>
   </g>
   <g id="line2d_15">
    <path d="M 411.936524 384.579066 
L 411.406323 376.226681 
L 410.293416 367.952264 
L 408.315856 360.301076 
L 406.127143 352.632541 
L 403.353469 345.709062 
L 400.206997 338.713043 
L 396.663604 332.234911 
L 392.577702 326.196138 
L 388.524095 320.294856 
L 383.775189 314.790355 
L 379.014419 309.658665 
L 373.859853 304.795404 
L 368.725973 300.307446 
L 363.225397 296.112932 
L 357.393539 292.071073 
L 351.61765 288.435776 
L 345.723451 285.032905 
L 339.501816 282.023333 
L 333.38622 279.189975 
L 326.960524 276.592777 
L 320.63989 274.29531 
L 314.01412 272.302634 
L 307.478245 270.521018 
L 300.809065 269.005316 
L 294.180677 267.762561 
L 287.484827 266.728242 
L 280.747576 265.922076 
L 273.861821 265.512028 
L 267.112459 265.175665 
L 260.304502 265.096426 
L 253.54937 265.401776 
L 246.811986 265.894934 
L 239.994572 266.576741 
L 233.245075 267.53253 
L 226.568906 268.753677 
L 219.880733 270.181616 
L 213.321388 271.911667 
L 206.87738 273.901305 
L 200.329916 276.190302 
L 194.093204 278.701591 
L 187.751294 281.454071 
L 181.722431 284.514079 
L 175.601994 287.866379 
L 169.803317 291.439246 
L 164.148767 295.384503 
L 158.619714 299.514073 
L 153.253892 303.985218 
L 148.066667 308.791731 
L 143.27095 313.86896 
L 138.680245 319.255637 
L 134.38934 325.168668 
L 130.261095 331.15736 
L 126.671498 337.586927 
L 123.359927 344.291394 
L 120.466682 351.508569 
L 118.08438 358.887121 
L 116.369911 366.651365 
L 115.026272 374.629473 
L 114.416686 382.946631 
" clip-path="url(#p6e1b64ce36)" style="fill: none; stroke: #9b8cff; stroke-opacity: 0.3; stroke-width: 1.2; stroke-linecap: square"/>
   </g>
   <g id="line2d_16">
    <path d="M 421.704479 188.368203 
L 413.578007 184.806704 
L 405.598447 181.631207 
L 397.438477 178.705631 
L 389.450304 176.157818 
L 381.278411 173.548522 
L 373.096525 171.12703 
L 365.095971 169.084976 
L 356.896898 167.065463 
L 348.687354 165.272972 
L 340.266776 163.584537 
L 332.140388 162.1183 
L 323.778996 160.796265 
L 315.67471 159.669062 
L 307.30667 158.731576 
L 298.938147 157.908688 
L 290.741112 157.255967 
L 282.46256 156.710403 
L 274.05736 156.293446 
L 265.908194 156.044101 
L 257.541615 155.933071 
L 249.363613 156.163534 
L 241.082354 156.331024 
L 232.663903 156.661427 
L 224.342897 157.31117 
L 216.252015 157.984106 
L 207.929206 158.824389 
L 199.550958 159.764139 
L 191.398334 160.857408 
L 183.26126 162.188441 
L 175.013808 163.581375 
L 166.76405 165.200708 
L 158.512853 167.034327 
L 150.600055 169.016529 
L 142.350091 171.218248 
L 134.282591 173.368257 
L 126.189715 176.010422 
L 118.103314 178.780397 
L 110.190157 181.393758 
" clip-path="url(#p6e1b64ce36)" style="fill: none; stroke: #7fd4ff; stroke-opacity: 0.3; stroke-width: 1.2; stroke-linecap: square"/>
   </g>
   <g id="text_3">
    <!-- N -->
    <g style="fill: #c9d4e3" transform="translate(257.263847 74.980405) scale(0.14 -0.14)">
     <defs>
      <path id="DejaVuSans-Bold-4e" d="M 588 4666 
L 1931 4666 
L 3628 1466 
L 3628 4666 
L 4769 4666 
L 4769 0 
L 3425 0 
L 1728 3200 
L 1728 0 
L 588 0 
L 588 4666 
z
" transform="scale(0.015625)"/>
     </defs>
     <use xlink:href="#DejaVuSans-Bold-4e"/>
    </g>
   </g>
   <g id="text_4">
    <!-- E -->
    <g style="fill: #c9d4e3" transform="translate(466.044886 282.685194) scale(0.14 -0.14)">
     <defs>
      <path id="DejaVuSans-Bold-45" d="M 588 4666 
L 3834 4666 
L 3834 3756 
L 1791 3756 
L 1791 2888 
L 3713 2888 
L 3713 1978 
L 1791 1978 
L 1791 909 
L 3903 909 
L 3903 0 
L 588 0 
L 588 4666 
z
" transform="scale(0.015625)"/>
     </defs>
     <use xlink:href="#DejaVuSans-Bold-45"/>
    </g>
   </g>
   <g id="text_5">
    <!-- S -->
    <g style="fill: #c9d4e3" transform="translate(258.080878 490.389982) scale(0.14 -0.14)">
     <defs>
      <path id="DejaVuSans-Bold-53" d="M 3834 4519 
L 3834 3531 
Q 3450 3703 3084 3790 
Q 2719 3878 2394 3878 
Q 1963 3878 1756 3759 
Q 1550 3641 1550 3391 
Q 1550 3203 1689 3098 
Q 1828 2994 2194 2919 
L 2706 2816 
Q 3484 2659 3812 2340 
Q 4141 2022 4141 1434 
Q 4141 663 3683 286 
Q 3225 -91 2284 -91 
Q 1841 -91 1394 -6 
Q 947 78 500 244 
L 500 1259 
Q 947 1022 1364 901 
Q 1781 781 2169 781 
Q 2563 781 2772 912 
Q 2981 1044 2981 1288 
Q 2981 1506 2839 1625 
Q 2697 1744 2272 1838 
L 1806 1941 
Q 1106 2091 782 2419 
Q 459 2747 459 3303 
Q 459 4000 909 4375 
Q 1359 4750 2203 4750 
Q 2588 4750 2994 4692 
Q 3400 4634 3834 4519 
z
" transform="scale(0.015625)"/>
     </defs>
     <use xlink:href="#DejaVuSans-Bold-53"/>
    </g>
   </g>
   <g id="text_6">
    <!-- W -->
    <g style="fill: #c9d4e3" transform="translate(47.696402 282.685194) scale(0.14 -0.14)">
     <defs>
      <path id="DejaVuSans-Bold-57" d="M 191 4666 
L 1344 4666 
L 2150 1275 
L 2950 4666 
L 4109 4666 
L 4909 1275 
L 5716 4666 
L 6859 4666 
L 5759 0 
L 4372 0 
L 3525 3547 
L 2688 0 
L 1300 0 
L 191 4666 
z
" transform="scale(0.015625)"/>
     </defs>
     <use xlink:href="#DejaVuSans-Bold-57"/>
    </g>
   </g>
   <g id="text_7">
    <!-- lat -35.6416, lon 138.2514   |   cart at centre, N up, radius = altitude -->
    <g style="fill: #5b6675" transform="translate(125.534472 538.453055) scale(0.08 -0.08)">
     <defs>
      <path id="DejaVuSans-6c" d="M 603 4863 
L 1178 4863 
L 1178 0 
L 603 0 
L 603 4863 
z
" transform="scale(0.015625)"/>
      <path id="DejaVuSans-61" d="M 2194 1759 
Q 1497 1759 1228 1600 
Q 959 1441 959 1056 
Q 959 750 1161 570 
Q 1363 391 1709 391 
Q 2188 391 2477 730 
Q 2766 1069 2766 1631 
L 2766 1759 
L 2194 1759 
z
M 3341 1997 
L 3341 0 
L 2766 0 
L 2766 531 
Q 2569 213 2275 61 
Q 1981 -91 1556 -91 
Q 1019 -91 701 211 
Q 384 513 384 1019 
Q 384 1609 779 1909 
Q 1175 2209 1959 2209 
L 2766 2209 
L 2766 2266 
Q 2766 2663 2505 2880 
Q 2244 3097 1772 3097 
Q 1472 3097 1187 3025 
Q 903 2953 641 2809 
L 641 3341 
Q 956 3463 1253 3523 
Q 1550 3584 1831 3584 
Q 2591 3584 2966 3190 
Q 3341 2797 3341 1997 
z
" transform="scale(0.015625)"/>
      <path id="DejaVuSans-74" d="M 1172 4494 
L 1172 3500 
L 2356 3500 
L 2356 3053 
L 1172 3053 
L 1172 1153 
Q 1172 725 1289 603 
Q 1406 481 1766 481 
L 2356 481 
L 2356 0 
L 1766 0 
Q 1100 0 847 248 
Q 594 497 594 1153 
L 594 3053 
L 172 3053 
L 172 3500 
L 594 3500 
L 594 4494 
L 1172 4494 
z
" transform="scale(0.015625)"/>
      <path id="DejaVuSans-2d" d="M 313 2009 
L 1997 2009 
L 1997 1497 
L 313 1497 
L 313 2009 
z
" transform="scale(0.015625)"/>
      <path id="DejaVuSans-35" d="M 691 4666 
L 3169 4666 
L 3169 4134 
L 1269 4134 
L 1269 2991 
Q 1406 3038 1543 3061 
Q 1681 3084 1819 3084 
Q 2600 3084 3056 2656 
Q 3513 2228 3513 1497 
Q 3513 744 3044 326 
Q 2575 -91 1722 -91 
Q 1428 -91 1123 -41 
Q 819 9 494 109 
L 494 744 
Q 775 591 1075 516 
Q 1375 441 1709 441 
Q 2250 441 2565 725 
Q 2881 1009 2881 1497 
Q 2881 1984 2565 2268 
Q 2250 2553 1709 2553 
Q 1456 2553 1204 2497 
Q 953 2441 691 2322 
L 691 4666 
z
" transform="scale(0.015625)"/>
      <path id="DejaVuSans-2e" d="M 684 794 
L 1344 794 
L 1344 0 
L 684 0 
L 684 794 
z
" transform="scale(0.015625)"/>
      <path id="DejaVuSans-34" d="M 2419 4116 
L 825 1625 
L 2419 1625 
L 2419 4116 
z
M 2253 4666 
L 3047 4666 
L 3047 1625 
L 3713 1625 
L 3713 1100 
L 3047 1100 
L 3047 0 
L 2419 0 
L 2419 1100 
L 313 1100 
L 313 1709 
L 2253 4666 
z
" transform="scale(0.015625)"/>
      <path id="DejaVuSans-31" d="M 794 531 
L 1825 531 
L 1825 4091 
L 703 3866 
L 703 4441 
L 1819 4666 
L 2450 4666 
L 2450 531 
L 3481 531 
L 3481 0 
L 794 0 
L 794 531 
z
" transform="scale(0.015625)"/>
      <path id="DejaVuSans-2c" d="M 750 794 
L 1409 794 
L 1409 256 
L 897 -744 
L 494 -744 
L 750 256 
L 750 794 
z
" transform="scale(0.015625)"/>
      <path id="DejaVuSans-6f" d="M 1959 3097 
Q 1497 3097 1228 2736 
Q 959 2375 959 1747 
Q 959 1119 1226 758 
Q 1494 397 1959 397 
Q 2419 397 2687 759 
Q 2956 1122 2956 1747 
Q 2956 2369 2687 2733 
Q 2419 3097 1959 3097 
z
M 1959 3584 
Q 2709 3584 3137 3096 
Q 3566 2609 3566 1747 
Q 3566 888 3137 398 
Q 2709 -91 1959 -91 
Q 1206 -91 779 398 
Q 353 888 353 1747 
Q 353 2609 779 3096 
Q 1206 3584 1959 3584 
z
" transform="scale(0.015625)"/>
      <path id="DejaVuSans-6e" d="M 3513 2113 
L 3513 0 
L 2938 0 
L 2938 2094 
Q 2938 2591 2744 2837 
Q 2550 3084 2163 3084 
Q 1697 3084 1428 2787 
Q 1159 2491 1159 1978 
L 1159 0 
L 581 0 
L 581 3500 
L 1159 3500 
L 1159 2956 
Q 1366 3272 1645 3428 
Q 1925 3584 2291 3584 
Q 2894 3584 3203 3211 
Q 3513 2838 3513 2113 
z
" transform="scale(0.015625)"/>
      <path id="DejaVuSans-38" d="M 2034 2216 
Q 1584 2216 1326 1975 
Q 1069 1734 1069 1313 
Q 1069 891 1326 650 
Q 1584 409 2034 409 
Q 2484 409 2743 651 
Q 3003 894 3003 1313 
Q 3003 1734 2745 1975 
Q 2488 2216 2034 2216 
z
M 1403 2484 
Q 997 2584 770 2862 
Q 544 3141 544 3541 
Q 544 4100 942 4425 
Q 1341 4750 2034 4750 
Q 2731 4750 3128 4425 
Q 3525 4100 3525 3541 
Q 3525 3141 3298 2862 
Q 3072 2584 2669 2484 
Q 3125 2378 3379 2068 
Q 3634 1759 3634 1313 
Q 3634 634 3220 271 
Q 2806 -91 2034 -91 
Q 1263 -91 848 271 
Q 434 634 434 1313 
Q 434 1759 690 2068 
Q 947 2378 1403 2484 
z
M 1172 3481 
Q 1172 3119 1398 2916 
Q 1625 2713 2034 2713 
Q 2441 2713 2670 2916 
Q 2900 3119 2900 3481 
Q 2900 3844 2670 4047 
Q 2441 4250 2034 4250 
Q 1625 4250 1398 4047 
Q 1172 3844 1172 3481 
z
" transform="scale(0.015625)"/>
      <path id="DejaVuSans-32" d="M 1228 531 
L 3431 531 
L 3431 0 
L 469 0 
L 469 531 
Q 828 903 1448 1529 
Q 2069 2156 2228 2338 
Q 2531 2678 2651 2914 
Q 2772 3150 2772 3378 
Q 2772 3750 2511 3984 
Q 2250 4219 1831 4219 
Q 1534 4219 1204 4116 
Q 875 4013 500 3803 
L 500 4441 
Q 881 4594 1212 4672 
Q 1544 4750 1819 4750 
Q 2544 4750 2975 4387 
Q 3406 4025 3406 3419 
Q 3406 3131 3298 2873 
Q 3191 2616 2906 2266 
Q 2828 2175 2409 1742 
Q 1991 1309 1228 531 
z
" transform="scale(0.015625)"/>
      <path id="DejaVuSans-7c" d="M 1344 4891 
L 1344 -1509 
L 813 -1509 
L 813 4891 
L 1344 4891 
z
" transform="scale(0.015625)"/>
      <path id="DejaVuSans-63" d="M 3122 3366 
L 3122 2828 
Q 2878 2963 2633 3030 
Q 2388 3097 2138 3097 
Q 1578 3097 1268 2742 
Q 959 2388 959 1747 
Q 959 1106 1268 751 
Q 1578 397 2138 397 
Q 2388 397 2633 464 
Q 2878 531 3122 666 
L 3122 134 
Q 2881 22 2623 -34 
Q 2366 -91 2075 -91 
Q 1284 -91 818 406 
Q 353 903 353 1747 
Q 353 2603 823 3093 
Q 1294 3584 2113 3584 
Q 2378 3584 2631 3529 
Q 2884 3475 3122 3366 
z
" transform="scale(0.015625)"/>
      <path id="DejaVuSans-72" d="M 2631 2963 
Q 2534 3019 2420 3045 
Q 2306 3072 2169 3072 
Q 1681 3072 1420 2755 
Q 1159 2438 1159 1844 
L 1159 0 
L 581 0 
L 581 3500 
L 1159 3500 
L 1159 2956 
Q 1341 3275 1631 3429 
Q 1922 3584 2338 3584 
Q 2397 3584 2469 3576 
Q 2541 3569 2628 3553 
L 2631 2963 
z
" transform="scale(0.015625)"/>
      <path id="DejaVuSans-65" d="M 3597 1894 
L 3597 1613 
L 953 1613 
Q 991 1019 1311 708 
Q 1631 397 2203 397 
Q 2534 397 2845 478 
Q 3156 559 3463 722 
L 3463 178 
Q 3153 47 2828 -22 
Q 2503 -91 2169 -91 
Q 1331 -91 842 396 
Q 353 884 353 1716 
Q 353 2575 817 3079 
Q 1281 3584 2069 3584 
Q 2775 3584 3186 3129 
Q 3597 2675 3597 1894 
z
M 3022 2063 
Q 3016 2534 2758 2815 
Q 2500 3097 2075 3097 
Q 1594 3097 1305 2825 
Q 1016 2553 972 2059 
L 3022 2063 
z
" transform="scale(0.015625)"/>
      <path id="DejaVuSans-4e" d="M 628 4666 
L 1478 4666 
L 3547 763 
L 3547 4666 
L 4159 4666 
L 4159 0 
L 3309 0 
L 1241 3903 
L 1241 0 
L 628 0 
L 628 4666 
z
" transform="scale(0.015625)"/>
      <path id="DejaVuSans-75" d="M 544 1381 
L 544 3500 
L 1119 3500 
L 1119 1403 
Q 1119 906 1312 657 
Q 1506 409 1894 409 
Q 2359 409 2629 706 
Q 2900 1003 2900 1516 
L 2900 3500 
L 3475 3500 
L 3475 0 
L 2900 0 
L 2900 538 
Q 2691 219 2414 64 
Q 2138 -91 1772 -91 
Q 1169 -91 856 284 
Q 544 659 544 1381 
z
M 1991 3584 
L 1991 3584 
z
" transform="scale(0.015625)"/>
      <path id="DejaVuSans-70" d="M 1159 525 
L 1159 -1331 
L 581 -1331 
L 581 3500 
L 1159 3500 
L 1159 2969 
Q 1341 3281 1617 3432 
Q 1894 3584 2278 3584 
Q 2916 3584 3314 3078 
Q 3713 2572 3713 1747 
Q 3713 922 3314 415 
Q 2916 -91 2278 -91 
Q 1894 -91 1617 61 
Q 1341 213 1159 525 
z
M 3116 1747 
Q 3116 2381 2855 2742 
Q 2594 3103 2138 3103 
Q 1681 3103 1420 2742 
Q 1159 2381 1159 1747 
Q 1159 1113 1420 752 
Q 1681 391 2138 391 
Q 2594 391 2855 752 
Q 3116 1113 3116 1747 
z
" transform="scale(0.015625)"/>
      <path id="DejaVuSans-64" d="M 2906 2969 
L 2906 4863 
L 3481 4863 
L 3481 0 
L 2906 0 
L 2906 525 
Q 2725 213 2448 61 
Q 2172 -91 1784 -91 
Q 1150 -91 751 415 
Q 353 922 353 1747 
Q 353 2572 751 3078 
Q 1150 3584 1784 3584 
Q 2172 3584 2448 3432 
Q 2725 3281 2906 2969 
z
M 947 1747 
Q 947 1113 1208 752 
Q 1469 391 1925 391 
Q 2381 391 2643 752 
Q 2906 1113 2906 1747 
Q 2906 2381 2643 2742 
Q 2381 3103 1925 3103 
Q 1469 3103 1208 2742 
Q 947 2381 947 1747 
z
" transform="scale(0.015625)"/>
      <path id="DejaVuSans-69" d="M 603 3500 
L 1178 3500 
L 1178 0 
L 603 0 
L 603 3500 
z
M 603 4863 
L 1178 4863 
L 1178 4134 
L 603 4134 
L 603 4863 
z
" transform="scale(0.015625)"/>
      <path id="DejaVuSans-73" d="M 2834 3397 
L 2834 2853 
Q 2591 2978 2328 3040 
Q 2066 3103 1784 3103 
Q 1356 3103 1142 2972 
Q 928 2841 928 2578 
Q 928 2378 1081 2264 
Q 1234 2150 1697 2047 
L 1894 2003 
Q 2506 1872 2764 1633 
Q 3022 1394 3022 966 
Q 3022 478 2636 193 
Q 2250 -91 1575 -91 
Q 1294 -91 989 -36 
Q 684 19 347 128 
L 347 722 
Q 666 556 975 473 
Q 1284 391 1588 391 
Q 1994 391 2212 530 
Q 2431 669 2431 922 
Q 2431 1156 2273 1281 
Q 2116 1406 1581 1522 
L 1381 1569 
Q 847 1681 609 1914 
Q 372 2147 372 2553 
Q 372 3047 722 3315 
Q 1072 3584 1716 3584 
Q 2034 3584 2315 3537 
Q 2597 3491 2834 3397 
z
" transform="scale(0.015625)"/>
      <path id="DejaVuSans-3d" d="M 678 2906 
L 4684 2906 
L 4684 2381 
L 678 2381 
L 678 2906 
z
M 678 1631 
L 4684 1631 
L 4684 1100 
L 678 1100 
L 678 1631 
z
" transform="scale(0.015625)"/>
     </defs>
     <use xlink:href="#DejaVuSans-6c"/>
     <use xlink:href="#DejaVuSans-61" transform="translate(27.783203 0)"/>
     <use xlink:href="#DejaVuSans-74" transform="translate(89.0625 0)"/>
     <use xlink:href="#DejaVuSans-20" transform="translate(128.271484 0)"/>
     <use xlink:href="#DejaVuSans-2d" transform="translate(160.058594 0)"/>
     <use xlink:href="#DejaVuSans-33" transform="translate(196.142578 0)"/>
     <use xlink:href="#DejaVuSans-35" transform="translate(259.765625 0)"/>
     <use xlink:href="#DejaVuSans-2e" transform="translate(323.388672 0)"/>
     <use xlink:href="#DejaVuSans-36" transform="translate(355.175781 0)"/>
     <use xlink:href="#DejaVuSans-34" transform="translate(418.798828 0)"/>
     <use xlink:href="#DejaVuSans-31" transform="translate(482.421875 0)"/>
     <use xlink:href="#DejaVuSans-36" transform="translate(546.044922 0)"/>
     <use xlink:href="#DejaVuSans-2c" transform="translate(609.667969 0)"/>
     <use xlink:href="#DejaVuSans-20" transform="translate(641.455078 0)"/>
     <use xlink:href="#DejaVuSans-6c" transform="translate(673.242188 0)"/>
     <use xlink:href="#DejaVuSans-6f" transform="translate(701.025391 0)"/>
     <use xlink:href="#DejaVuSans-6e" transform="translate(762.207031 0)"/>
     <use xlink:href="#DejaVuSans-20" transform="translate(825.585938 0)"/>
     <use xlink:href="#DejaVuSans-31" transform="translate(857.373047 0)"/>
     <use xlink:href="#DejaVuSans-33" transform="translate(920.996094 0)"/>
     <use xlink:href="#DejaVuSans-38" transform="translate(984.619141 0)"/>
     <use xlink:href="#DejaVuSans-2e" transform="translate(1048.242188 0)"/>
     <use xlink:href="#DejaVuSans-32" transform="translate(1080.029297 0)"/>
     <use xlink:href="#DejaVuSans-35" transform="translate(1143.652344 0)"/>
     <use xlink:href="#DejaVuSans-31" transform="translate(1207.275391 0)"/>
     <use xlink:href="#DejaVuSans-34" transform="translate(1270.898438 0)"/>
     <use xlink:href="#DejaVuSans-20" transform="translate(1334.521484 0)"/>
     <use xlink:href="#DejaVuSans-20" transform="translate(1366.308594 0)"/>
     <use xlink:href="#DejaVuSans-20" transform="translate(1398.095703 0)"/>
     <use xlink:href="#DejaVuSans-7c" transform="translate(1429.882812 0)"/>
     <use xlink:href="#DejaVuSans-20" transform="translate(1463.574219 0)"/>
     <use xlink:href="#DejaVuSans-20" transform="translate(1495.361328 0)"/>
     <use xlink:href="#DejaVuSans-20" transform="translate(1527.148438 0)"/>
     <use xlink:href="#DejaVuSans-63" transform="translate(1558.935547 0)"/>
     <use xlink:href="#DejaVuSans-61" transform="translate(1613.916016 0)"/>
     <use xlink:href="#DejaVuSans-72" transform="translate(1675.195312 0)"/>
     <use xlink:href="#DejaVuSans-74" transform="translate(1716.308594 0)"/>
     <use xlink:href="#DejaVuSans-20" transform="translate(1755.517578 0)"/>
     <use xlink:href="#DejaVuSans-61" transform="translate(1787.304688 0)"/>
     <use xlink:href="#DejaVuSans-74" transform="translate(1848.583984 0)"/>
     <use xlink:href="#DejaVuSans-20" transform="translate(1887.792969 0)"/>
     <use xlink:href="#DejaVuSans-63" transform="translate(1919.580078 0)"/>
     <use xlink:href="#DejaVuSans-65" transform="translate(1974.560547 0)"/>
     <use xlink:href="#DejaVuSans-6e" transform="translate(2036.083984 0)"/>
     <use xlink:href="#DejaVuSans-74" transform="translate(2099.462891 0)"/>
     <use xlink:href="#DejaVuSans-72" transform="translate(2138.671875 0)"/>
     <use xlink:href="#DejaVuSans-65" transform="translate(2177.535156 0)"/>
     <use xlink:href="#DejaVuSans-2c" transform="translate(2239.058594 0)"/>
     <use xlink:href="#DejaVuSans-20" transform="translate(2270.845703 0)"/>
     <use xlink:href="#DejaVuSans-4e" transform="translate(2302.632812 0)"/>
     <use xlink:href="#DejaVuSans-20" transform="translate(2377.4375 0)"/>
     <use xlink:href="#DejaVuSans-75" transform="translate(2409.224609 0)"/>
     <use xlink:href="#DejaVuSans-70" transform="translate(2472.603516 0)"/>
     <use xlink:href="#DejaVuSans-2c" transform="translate(2536.080078 0)"/>
     <use xlink:href="#DejaVuSans-20" transform="translate(2567.867188 0)"/>
     <use xlink:href="#DejaVuSans-72" transform="translate(2599.654297 0)"/>
     <use xlink:href="#DejaVuSans-61" transform="translate(2640.767578 0)"/>
     <use xlink:href="#DejaVuSans-64" transform="translate(2702.046875 0)"/>
     <use xlink:href="#DejaVuSans-69" transform="translate(2765.523438 0)"/>
     <use xlink:href="#DejaVuSans-75" transform="translate(2793.306641 0)"/>
     <use xlink:href="#DejaVuSans-73" transform="translate(2856.685547 0)"/>
     <use xlink:href="#DejaVuSans-20" transform="translate(2908.785156 0)"/>
     <use xlink:href="#DejaVuSans-3d" transform="translate(2940.572266 0)"/>
     <use xlink:href="#DejaVuSans-20" transform="translate(3024.361328 0)"/>
     <use xlink:href="#DejaVuSans-61" transform="translate(3056.148438 0)"/>
     <use xlink:href="#DejaVuSans-6c" transform="translate(3117.427734 0)"/>
     <use xlink:href="#DejaVuSans-74" transform="translate(3145.210938 0)"/>
     <use xlink:href="#DejaVuSans-69" transform="translate(3184.419922 0)"/>
     <use xlink:href="#DejaVuSans-74" transform="translate(3212.203125 0)"/>
     <use xlink:href="#DejaVuSans-75" transform="translate(3251.412109 0)"/>
     <use xlink:href="#DejaVuSans-64" transform="translate(3314.791016 0)"/>
     <use xlink:href="#DejaVuSans-65" transform="translate(3378.267578 0)"/>
    </g>
   </g>
   <g id="text_8">
    <!-- Gimbal Plan View  —  glyph dir = world bearing, length = pitch -->
    <g style="fill: #e6edf3" transform="translate(73.978534 16.318125) scale(0.12 -0.12)">
     <defs>
      <path id="DejaVuSans-47" d="M 3809 666 
L 3809 1919 
L 2778 1919 
L 2778 2438 
L 4434 2438 
L 4434 434 
Q 4069 175 3628 42 
Q 3188 -91 2688 -91 
Q 1594 -91 976 548 
Q 359 1188 359 2328 
Q 359 3472 976 4111 
Q 1594 4750 2688 4750 
Q 3144 4750 3555 4637 
Q 3966 4525 4313 4306 
L 4313 3634 
Q 3963 3931 3569 4081 
Q 3175 4231 2741 4231 
Q 1884 4231 1454 3753 
Q 1025 3275 1025 2328 
Q 1025 1384 1454 906 
Q 1884 428 2741 428 
Q 3075 428 3337 486 
Q 3600 544 3809 666 
z
" transform="scale(0.015625)"/>
      <path id="DejaVuSans-6d" d="M 3328 2828 
Q 3544 3216 3844 3400 
Q 4144 3584 4550 3584 
Q 5097 3584 5394 3201 
Q 5691 2819 5691 2113 
L 5691 0 
L 5113 0 
L 5113 2094 
Q 5113 2597 4934 2840 
Q 4756 3084 4391 3084 
Q 3944 3084 3684 2787 
Q 3425 2491 3425 1978 
L 3425 0 
L 2847 0 
L 2847 2094 
Q 2847 2600 2669 2842 
Q 2491 3084 2119 3084 
Q 1678 3084 1418 2786 
Q 1159 2488 1159 1978 
L 1159 0 
L 581 0 
L 581 3500 
L 1159 3500 
L 1159 2956 
Q 1356 3278 1631 3431 
Q 1906 3584 2284 3584 
Q 2666 3584 2933 3390 
Q 3200 3197 3328 2828 
z
" transform="scale(0.015625)"/>
      <path id="DejaVuSans-62" d="M 3116 1747 
Q 3116 2381 2855 2742 
Q 2594 3103 2138 3103 
Q 1681 3103 1420 2742 
Q 1159 2381 1159 1747 
Q 1159 1113 1420 752 
Q 1681 391 2138 391 
Q 2594 391 2855 752 
Q 3116 1113 3116 1747 
z
M 1159 2969 
Q 1341 3281 1617 3432 
Q 1894 3584 2278 3584 
Q 2916 3584 3314 3078 
Q 3713 2572 3713 1747 
Q 3713 922 3314 415 
Q 2916 -91 2278 -91 
Q 1894 -91 1617 61 
Q 1341 213 1159 525 
L 1159 0 
L 581 0 
L 581 4863 
L 1159 4863 
L 1159 2969 
z
" transform="scale(0.015625)"/>
      <path id="DejaVuSans-50" d="M 1259 4147 
L 1259 2394 
L 2053 2394 
Q 2494 2394 2734 2622 
Q 2975 2850 2975 3272 
Q 2975 3691 2734 3919 
Q 2494 4147 2053 4147 
L 1259 4147 
z
M 628 4666 
L 2053 4666 
Q 2838 4666 3239 4311 
Q 3641 3956 3641 3272 
Q 3641 2581 3239 2228 
Q 2838 1875 2053 1875 
L 1259 1875 
L 1259 0 
L 628 0 
L 628 4666 
z
" transform="scale(0.015625)"/>
      <path id="DejaVuSans-56" d="M 1831 0 
L 50 4666 
L 709 4666 
L 2188 738 
L 3669 4666 
L 4325 4666 
L 2547 0 
L 1831 0 
z
" transform="scale(0.015625)"/>
      <path id="DejaVuSans-77" d="M 269 3500 
L 844 3500 
L 1563 769 
L 2278 3500 
L 2956 3500 
L 3675 769 
L 4391 3500 
L 4966 3500 
L 4050 0 
L 3372 0 
L 2619 2869 
L 1863 0 
L 1184 0 
L 269 3500 
z
" transform="scale(0.015625)"/>
      <path id="DejaVuSans-2014" d="M 313 1978 
L 6088 1978 
L 6088 1528 
L 313 1528 
L 313 1978 
z
" transform="scale(0.015625)"/>
      <path id="DejaVuSans-67" d="M 2906 1791 
Q 2906 2416 2648 2759 
Q 2391 3103 1925 3103 
Q 1463 3103 1205 2759 
Q 947 2416 947 1791 
Q 947 1169 1205 825 
Q 1463 481 1925 481 
Q 2391 481 2648 825 
Q 2906 1169 2906 1791 
z
M 3481 434 
Q 3481 -459 3084 -895 
Q 2688 -1331 1869 -1331 
Q 1566 -1331 1297 -1286 
Q 1028 -1241 775 -1147 
L 775 -588 
Q 1028 -725 1275 -790 
Q 1522 -856 1778 -856 
Q 2344 -856 2625 -561 
Q 2906 -266 2906 331 
L 2906 616 
Q 2728 306 2450 153 
Q 2172 0 1784 0 
Q 1141 0 747 490 
Q 353 981 353 1791 
Q 353 2603 747 3093 
Q 1141 3584 1784 3584 
Q 2172 3584 2450 3431 
Q 2728 3278 2906 2969 
L 2906 3500 
L 3481 3500 
L 3481 434 
z
" transform="scale(0.015625)"/>
      <path id="DejaVuSans-79" d="M 2059 -325 
Q 1816 -950 1584 -1140 
Q 1353 -1331 966 -1331 
L 506 -1331 
L 506 -850 
L 844 -850 
Q 1081 -850 1212 -737 
Q 1344 -625 1503 -206 
L 1606 56 
L 191 3500 
L 800 3500 
L 1894 763 
L 2988 3500 
L 3597 3500 
L 2059 -325 
z
" transform="scale(0.015625)"/>
      <path id="DejaVuSans-68" d="M 3513 2113 
L 3513 0 
L 2938 0 
L 2938 2094 
Q 2938 2591 2744 2837 
Q 2550 3084 2163 3084 
Q 1697 3084 1428 2787 
Q 1159 2491 1159 1978 
L 1159 0 
L 581 0 
L 581 4863 
L 1159 4863 
L 1159 2956 
Q 1366 3272 1645 3428 
Q 1925 3584 2291 3584 
Q 2894 3584 3203 3211 
Q 3513 2838 3513 2113 
z
" transform="scale(0.015625)"/>
     </defs>
     <use xlink:href="#DejaVuSans-47"/>
     <use xlink:href="#DejaVuSans-69" transform="translate(77.490234 0)"/>
     <use xlink:href="#DejaVuSans-6d" transform="translate(105.273438 0)"/>
     <use xlink:href="#DejaVuSans-62" transform="translate(202.685547 0)"/>
     <use xlink:href="#DejaVuSans-61" transform="translate(266.162109 0)"/>
     <use xlink:href="#DejaVuSans-6c" transform="translate(327.441406 0)"/>
     <use xlink:href="#DejaVuSans-20" transform="translate(355.224609 0)"/>
     <use xlink:href="#DejaVuSans-50" transform="translate(387.011719 0)"/>
     <use xlink:href="#DejaVuSans-6c" transform="translate(447.314453 0)"/>
     <use xlink:href="#DejaVuSans-61" transform="translate(475.097656 0)"/>
     <use xlink:href="#DejaVuSans-6e" transform="translate(536.376953 0)"/>
     <use xlink:href="#DejaVuSans-20" transform="translate(599.755859 0)"/>
     <use xlink:href="#DejaVuSans-56" transform="translate(631.542969 0)"/>
     <use xlink:href="#DejaVuSans-69" transform="translate(697.701172 0)"/>
     <use xlink:href="#DejaVuSans-65" transform="translate(725.484375 0)"/>
     <use xlink:href="#DejaVuSans-77" transform="translate(787.007812 0)"/>
     <use xlink:href="#DejaVuSans-20" transform="translate(868.794922 0)"/>
     <use xlink:href="#DejaVuSans-20" transform="translate(900.582031 0)"/>
     <use xlink:href="#DejaVuSans-2014" transform="translate(932.369141 0)"/>
     <use xlink:href="#DejaVuSans-20" transform="translate(1032.369141 0)"/>
     <use xlink:href="#DejaVuSans-20" transform="translate(1064.15625 0)"/>
     <use xlink:href="#DejaVuSans-67" transform="translate(1095.943359 0)"/>
     <use xlink:href="#DejaVuSans-6c" transform="translate(1159.419922 0)"/>
     <use xlink:href="#DejaVuSans-79" transform="translate(1187.203125 0)"/>
     <use xlink:href="#DejaVuSans-70" transform="translate(1246.382812 0)"/>
     <use xlink:href="#DejaVuSans-68" transform="translate(1309.859375 0)"/>
     <use xlink:href="#DejaVuSans-20" transform="translate(1373.238281 0)"/>
     <use xlink:href="#DejaVuSans-64" transform="translate(1405.025391 0)"/>
     <use xlink:href="#DejaVuSans-69" transform="translate(1468.501953 0)"/>
     <use xlink:href="#DejaVuSans-72" transform="translate(1496.285156 0)"/>
     <use xlink:href="#DejaVuSans-20" transform="translate(1537.398438 0)"/>
     <use xlink:href="#DejaVuSans-3d" transform="translate(1569.185547 0)"/>
     <use xlink:href="#DejaVuSans-20" transform="translate(1652.974609 0)"/>
     <use xlink:href="#DejaVuSans-77" transform="translate(1684.761719 0)"/>
     <use xlink:href="#DejaVuSans-6f" transform="translate(1766.548828 0)"/>
     <use xlink:href="#DejaVuSans-72" transform="translate(1827.730469 0)"/>
     <use xlink:href="#DejaVuSans-6c" transform="translate(1868.84375 0)"/>
     <use xlink:href="#DejaVuSans-64" transform="translate(1896.626953 0)"/>
     <use xlink:href="#DejaVuSans-20" transform="translate(1960.103516 0)"/>
     <use xlink:href="#DejaVuSans-62" transform="translate(1991.890625 0)"/>
     <use xlink:href="#DejaVuSans-65" transform="translate(2055.367188 0)"/>
     <use xlink:href="#DejaVuSans-61" transform="translate(2116.890625 0)"/>
     <use xlink:href="#DejaVuSans-72" transform="translate(2178.169922 0)"/>
     <use xlink:href="#DejaVuSans-69" transform="translate(2219.283203 0)"/>
     <use xlink:href="#DejaVuSans-6e" transform="translate(2247.066406 0)"/>
     <use xlink:href="#DejaVuSans-67" transform="translate(2310.445312 0)"/>
     <use xlink:href="#DejaVuSans-2c" transform="translate(2373.921875 0)"/>
     <use xlink:href="#DejaVuSans-20" transform="translate(2405.708984 0)"/>
     <use xlink:href="#DejaVuSans-6c" transform="translate(2437.496094 0)"/>
     <use xlink:href="#DejaVuSans-65" transform="translate(2465.279297 0)"/>
     <use xlink:href="#DejaVuSans-6e" transform="translate(2526.802734 0)"/>
     <use xlink:href="#DejaVuSans-67" transform="translate(2590.181641 0)"/>
     <use xlink:href="#DejaVuSans-74" transform="translate(2653.658203 0)"/>
     <use xlink:href="#DejaVuSans-68" transform="translate(2692.867188 0)"/>
     <use xlink:href="#DejaVuSans-20" transform="translate(2756.246094 0)"/>
     <use xlink:href="#DejaVuSans-3d" transform="translate(2788.033203 0)"/>
     <use xlink:href="#DejaVuSans-20" transform="translate(2871.822266 0)"/>
     <use xlink:href="#DejaVuSans-70" transform="translate(2903.609375 0)"/>
     <use xlink:href="#DejaVuSans-69" transform="translate(2967.085938 0)"/>
     <use xlink:href="#DejaVuSans-74" transform="translate(2994.869141 0)"/>
     <use xlink:href="#DejaVuSans-63" transform="translate(3034.078125 0)"/>
     <use xlink:href="#DejaVuSans-68" transform="translate(3089.058594 0)"/>
    </g>
   </g>
   <g id="line2d_17">
    <path d="M 348.949871 176.536362 
L 356.311375 183.195037 
L 363.157873 190.382189 
L 369.45153 198.058098 
L 375.157563 206.180344 
L 380.244439 214.70404 
L 384.684045 223.58208 
L 388.451846 232.7654 
L 391.527019 242.20325 
L 393.89257 251.843471 
L 395.535425 261.632788 
L 396.446506 271.5171 
L 396.620777 281.441783 
L 396.057276 291.351987 
L 394.759116 301.192947 
L 392.733472 310.910274 
" clip-path="url(#p6e1b64ce36)" style="fill: none; stroke: #c9d4e3; stroke-opacity: 0.54; stroke-width: 1.6; stroke-linecap: square"/>
   </g>
   <g id="patch_5">
    <path d="M 394.350625 303.152544 
Q 393.746167 306.052223 393.141708 308.951902 
" clip-path="url(#p6e1b64ce36)" style="fill: none; opacity: 0.765"/>
    <path d="M 397.302998 303.690375 
L 393.141708 308.951902 
L 391.429261 302.465954 
z
" clip-path="url(#p6e1b64ce36)" style="fill: #c9d4e3; opacity: 0.765"/>
   </g>
   <g id="line2d_18">
    <path d="M 375.734553 306.520221 
L 371.748637 302.923403 
L 367.548014 299.433619 
L 363.157939 296.076999 
L 358.582513 292.859495 
L 353.826006 289.786976 
L 348.892837 286.865237 
L 343.78757 284.100042 
L 338.489109 281.485011 
L 333.053534 279.051197 
L 329.183325 277.462048 
L 329.183325 277.462048 
" clip-path="url(#p6e1b64ce36)" style="fill: none; stroke: #9b8cff; stroke-opacity: 0.95; stroke-width: 2.4; stroke-linecap: round"/>
   </g>
   <g id="text_9">
    <!-- 1→2 CW -->
    <g style="fill: #c9d4e3; opacity: 0.72" transform="translate(347.428039 190.835909) scale(0.07 -0.07)">
     <defs>
      <path id="DejaVuSans-2192" d="M 5050 2147 
L 5050 1866 
L 3822 638 
L 3447 1013 
L 4175 1741 
L 366 1741 
L 366 2272 
L 4175 2272 
L 3447 3000 
L 3822 3375 
L 5050 2147 
z
" transform="scale(0.015625)"/>
      <path id="DejaVuSans-43" d="M 4122 4306 
L 4122 3641 
Q 3803 3938 3442 4084 
Q 3081 4231 2675 4231 
Q 1875 4231 1450 3742 
Q 1025 3253 1025 2328 
Q 1025 1406 1450 917 
Q 1875 428 2675 428 
Q 3081 428 3442 575 
Q 3803 722 4122 1019 
L 4122 359 
Q 3791 134 3420 21 
Q 3050 -91 2638 -91 
Q 1578 -91 968 557 
Q 359 1206 359 2328 
Q 359 3453 968 4101 
Q 1578 4750 2638 4750 
Q 3056 4750 3426 4639 
Q 3797 4528 4122 4306 
z
" transform="scale(0.015625)"/>
      <path id="DejaVuSans-57" d="M 213 4666 
L 850 4666 
L 1831 722 
L 2809 4666 
L 3519 4666 
L 4500 722 
L 5478 4666 
L 6119 4666 
L 4947 0 
L 4153 0 
L 3169 4050 
L 2175 0 
L 1381 0 
L 213 4666 
z
" transform="scale(0.015625)"/>
     </defs>
     <use xlink:href="#DejaVuSans-31"/>
     <use xlink:href="#DejaVuSans-2192" transform="translate(63.623047 0)"/>
     <use xlink:href="#DejaVuSans-32" transform="translate(147.412109 0)"/>
     <use xlink:href="#DejaVuSans-20" transform="translate(211.035156 0)"/>
     <use xlink:href="#DejaVuSans-43" transform="translate(242.822266 0)"/>
     <use xlink:href="#DejaVuSans-57" transform="translate(312.646484 0)"/>
    </g>
   </g>
   <g id="line2d_19">
    <path d="M 382.327387 136.758587 
L 382.327387 136.758587 
" clip-path="url(#p6e1b64ce36)" style="fill: none; stroke: #36d399; stroke-width: 2.6; stroke-linecap: round"/>
   </g>
   <g id="legend_1">
    <g id="line2d_20">
     <path d="M 140.902597 527.681753 
L 151.102597 527.681753 
L 161.302597 527.681753 
" style="fill: none; stroke: #36d399; stroke-width: 2.6; stroke-linecap: square"/>
    </g>
    <g id="text_10">
     <!-- chassis-frame GP (cart-nose + offset) -->
     <g style="fill: #e6edf3" transform="translate(168.102597 530.656753) scale(0.085 -0.085)">
      <defs>
       <path id="DejaVuSans-66" d="M 2375 4863 
L 2375 4384 
L 1825 4384 
Q 1516 4384 1395 4259 
Q 1275 4134 1275 3809 
L 1275 3500 
L 2222 3500 
L 2222 3053 
L 1275 3053 
L 1275 0 
L 697 0 
L 697 3053 
L 147 3053 
L 147 3500 
L 697 3500 
L 697 3744 
Q 697 4328 969 4595 
Q 1241 4863 1831 4863 
L 2375 4863 
z
" transform="scale(0.015625)"/>
       <path id="DejaVuSans-28" d="M 1984 4856 
Q 1566 4138 1362 3434 
Q 1159 2731 1159 2009 
Q 1159 1288 1364 580 
Q 1569 -128 1984 -844 
L 1484 -844 
Q 1016 -109 783 600 
Q 550 1309 550 2009 
Q 550 2706 781 3412 
Q 1013 4119 1484 4856 
L 1984 4856 
z
" transform="scale(0.015625)"/>
       <path id="DejaVuSans-2b" d="M 2944 4013 
L 2944 2272 
L 4684 2272 
L 4684 1741 
L 2944 1741 
L 2944 0 
L 2419 0 
L 2419 1741 
L 678 1741 
L 678 2272 
L 2419 2272 
L 2419 4013 
L 2944 4013 
z
" transform="scale(0.015625)"/>
       <path id="DejaVuSans-29" d="M 513 4856 
L 1013 4856 
Q 1481 4119 1714 3412 
Q 1947 2706 1947 2009 
Q 1947 1309 1714 600 
Q 1481 -109 1013 -844 
L 513 -844 
Q 928 -128 1133 580 
Q 1338 1288 1338 2009 
Q 1338 2731 1133 3434 
Q 928 4138 513 4856 
z
" transform="scale(0.015625)"/>
      </defs>
      <use xlink:href="#DejaVuSans-63"/>
      <use xlink:href="#DejaVuSans-68" transform="translate(54.980469 0)"/>
      <use xlink:href="#DejaVuSans-61" transform="translate(118.359375 0)"/>
      <use xlink:href="#DejaVuSans-73" transform="translate(179.638672 0)"/>
      <use xlink:href="#DejaVuSans-73" transform="translate(231.738281 0)"/>
      <use xlink:href="#DejaVuSans-69" transform="translate(283.837891 0)"/>
      <use xlink:href="#DejaVuSans-73" transform="translate(311.621094 0)"/>
      <use xlink:href="#DejaVuSans-2d" transform="translate(363.720703 0)"/>
      <use xlink:href="#DejaVuSans-66" transform="translate(399.804688 0)"/>
      <use xlink:href="#DejaVuSans-72" transform="translate(435.009766 0)"/>
      <use xlink:href="#DejaVuSans-61" transform="translate(476.123047 0)"/>
      <use xlink:href="#DejaVuSans-6d" transform="translate(537.402344 0)"/>
      <use xlink:href="#DejaVuSans-65" transform="translate(634.814453 0)"/>
      <use xlink:href="#DejaVuSans-20" transform="translate(696.337891 0)"/>
      <use xlink:href="#DejaVuSans-47" transform="translate(728.125 0)"/>
      <use xlink:href="#DejaVuSans-50" transform="translate(805.615234 0)"/>
      <use xlink:href="#DejaVuSans-20" transform="translate(865.917969 0)"/>
      <use xlink:href="#DejaVuSans-28" transform="translate(897.705078 0)"/>
      <use xlink:href="#DejaVuSans-63" transform="translate(936.71875 0)"/>
      <use xlink:href="#DejaVuSans-61" transform="translate(991.699219 0)"/>
      <use xlink:href="#DejaVuSans-72" transform="translate(1052.978516 0)"/>
      <use xlink:href="#DejaVuSans-74" transform="translate(1094.091797 0)"/>
      <use xlink:href="#DejaVuSans-2d" transform="translate(1133.300781 0)"/>
      <use xlink:href="#DejaVuSans-6e" transform="translate(1169.384766 0)"/>
      <use xlink:href="#DejaVuSans-6f" transform="translate(1232.763672 0)"/>
      <use xlink:href="#DejaVuSans-73" transform="translate(1293.945312 0)"/>
      <use xlink:href="#DejaVuSans-65" transform="translate(1346.044922 0)"/>
      <use xlink:href="#DejaVuSans-20" transform="translate(1407.568359 0)"/>
      <use xlink:href="#DejaVuSans-2b" transform="translate(1439.355469 0)"/>
      <use xlink:href="#DejaVuSans-20" transform="translate(1523.144531 0)"/>
      <use xlink:href="#DejaVuSans-6f" transform="translate(1554.931641 0)"/>
      <use xlink:href="#DejaVuSans-66" transform="translate(1616.113281 0)"/>
      <use xlink:href="#DejaVuSans-66" transform="translate(1651.318359 0)"/>
      <use xlink:href="#DejaVuSans-73" transform="translate(1686.523438 0)"/>
      <use xlink:href="#DejaVuSans-65" transform="translate(1738.623047 0)"/>
      <use xlink:href="#DejaVuSans-74" transform="translate(1800.146484 0)"/>
      <use xlink:href="#DejaVuSans-29" transform="translate(1839.355469 0)"/>
     </g>
    </g>
    <g id="line2d_21">
     <path d="M 140.902597 540.158159 
L 151.102597 540.158159 
L 161.302597 540.158159 
" style="fill: none; stroke-dasharray: 15.6,5.2; stroke-dashoffset: 0; stroke: #ffb02e; stroke-width: 2.6"/>
    </g>
    <g id="text_11">
     <!-- earth-frame GP (points at object) -->
     <g style="fill: #e6edf3" transform="translate(168.102597 543.133159) scale(0.085 -0.085)">
      <defs>
       <path id="DejaVuSans-6a" d="M 603 3500 
L 1178 3500 
L 1178 -63 
Q 1178 -731 923 -1031 
Q 669 -1331 103 -1331 
L -116 -1331 
L -116 -844 
L 38 -844 
Q 366 -844 484 -692 
Q 603 -541 603 -63 
L 603 3500 
z
M 603 4863 
L 1178 4863 
L 1178 4134 
L 603 4134 
L 603 4863 
z
" transform="scale(0.015625)"/>
      </defs>
      <use xlink:href="#DejaVuSans-65"/>
      <use xlink:href="#DejaVuSans-61" transform="translate(61.523438 0)"/>
      <use xlink:href="#DejaVuSans-72" transform="translate(122.802734 0)"/>
      <use xlink:href="#DejaVuSans-74" transform="translate(163.916016 0)"/>
      <use xlink:href="#DejaVuSans-68" transform="translate(203.125 0)"/>
      <use xlink:href="#DejaVuSans-2d" transform="translate(266.503906 0)"/>
      <use xlink:href="#DejaVuSans-66" transform="translate(302.587891 0)"/>
      <use xlink:href="#DejaVuSans-72" transform="translate(337.792969 0)"/>
      <use xlink:href="#DejaVuSans-61" transform="translate(378.90625 0)"/>
      <use xlink:href="#DejaVuSans-6d" transform="translate(440.185547 0)"/>
      <use xlink:href="#DejaVuSans-65" transform="translate(537.597656 0)"/>
      <use xlink:href="#DejaVuSans-20" transform="translate(599.121094 0)"/>
      <use xlink:href="#DejaVuSans-47" transform="translate(630.908203 0)"/>
      <use xlink:href="#DejaVuSans-50" transform="translate(708.398438 0)"/>
      <use xlink:href="#DejaVuSans-20" transform="translate(768.701172 0)"/>
      <use xlink:href="#DejaVuSans-28" transform="translate(800.488281 0)"/>
      <use xlink:href="#DejaVuSans-70" transform="translate(839.501953 0)"/>
      <use xlink:href="#DejaVuSans-6f" transform="translate(902.978516 0)"/>
      <use xlink:href="#DejaVuSans-69" transform="translate(964.160156 0)"/>
      <use xlink:href="#DejaVuSans-6e" transform="translate(991.943359 0)"/>
      <use xlink:href="#DejaVuSans-74" transform="translate(1055.322266 0)"/>
      <use xlink:href="#DejaVuSans-73" transform="translate(1094.53125 0)"/>
      <use xlink:href="#DejaVuSans-20" transform="translate(1146.630859 0)"/>
      <use xlink:href="#DejaVuSans-61" transform="translate(1178.417969 0)"/>
      <use xlink:href="#DejaVuSans-74" transform="translate(1239.697266 0)"/>
      <use xlink:href="#DejaVuSans-20" transform="translate(1278.90625 0)"/>
      <use xlink:href="#DejaVuSans-6f" transform="translate(1310.693359 0)"/>
      <use xlink:href="#DejaVuSans-62" transform="translate(1371.875 0)"/>
      <use xlink:href="#DejaVuSans-6a" transform="translate(1435.351562 0)"/>
      <use xlink:href="#DejaVuSans-65" transform="translate(1463.134766 0)"/>
      <use xlink:href="#DejaVuSans-63" transform="translate(1524.658203 0)"/>
      <use xlink:href="#DejaVuSans-74" transform="translate(1579.638672 0)"/>
      <use xlink:href="#DejaVuSans-29" transform="translate(1618.847656 0)"/>
     </g>
    </g>
    <g id="line2d_22">
     <path d="M 140.902597 552.634566 
L 151.102597 552.634566 
L 161.302597 552.634566 
" style="fill: none; stroke: #c9d4e3; stroke-opacity: 0.7; stroke-width: 1.6; stroke-linecap: square"/>
     <defs>
      <path id="m19f27501b5" d="M 3 0 
L -3 -3 
L -3 3 
z
" style="stroke: #c9d4e3; stroke-opacity: 0.7; stroke-linejoin: miter"/>
     </defs>
     <g>
      <use xlink:href="#m19f27501b5" x="151.102597" y="552.634566" style="fill: #c9d4e3; fill-opacity: 0.7; stroke: #c9d4e3; stroke-opacity: 0.7; stroke-linejoin: miter"/>
     </g>
    </g>
    <g id="text_12">
     <!-- GP sweep order (1→2→3→4) -->
     <g style="fill: #e6edf3" transform="translate(168.102597 555.609566) scale(0.085 -0.085)">
      <use xlink:href="#DejaVuSans-47"/>
      <use xlink:href="#DejaVuSans-50" transform="translate(77.490234 0)"/>
      <use xlink:href="#DejaVuSans-20" transform="translate(137.792969 0)"/>
      <use xlink:href="#DejaVuSans-73" transform="translate(169.580078 0)"/>
      <use xlink:href="#DejaVuSans-77" transform="translate(221.679688 0)"/>
      <use xlink:href="#DejaVuSans-65" transform="translate(303.466797 0)"/>
      <use xlink:href="#DejaVuSans-65" transform="translate(364.990234 0)"/>
      <use xlink:href="#DejaVuSans-70" transform="translate(426.513672 0)"/>
      <use xlink:href="#DejaVuSans-20" transform="translate(489.990234 0)"/>
      <use xlink:href="#DejaVuSans-6f" transform="translate(521.777344 0)"/>
      <use xlink:href="#DejaVuSans-72" transform="translate(582.958984 0)"/>
      <use xlink:href="#DejaVuSans-64" transform="translate(622.322266 0)"/>
      <use xlink:href="#DejaVuSans-65" transform="translate(685.798828 0)"/>
      <use xlink:href="#DejaVuSans-72" transform="translate(747.322266 0)"/>
      <use xlink:href="#DejaVuSans-20" transform="translate(788.435547 0)"/>
      <use xlink:href="#DejaVuSans-28" transform="translate(820.222656 0)"/>
      <use xlink:href="#DejaVuSans-31" transform="translate(859.236328 0)"/>
      <use xlink:href="#DejaVuSans-2192" transform="translate(922.859375 0)"/>
      <use xlink:href="#DejaVuSans-32" transform="translate(1006.648438 0)"/>
      <use xlink:href="#DejaVuSans-2192" transform="translate(1070.271484 0)"/>
      <use xlink:href="#DejaVuSans-33" transform="translate(1154.060547 0)"/>
      <use xlink:href="#DejaVuSans-2192" transform="translate(1217.683594 0)"/>
      <use xlink:href="#DejaVuSans-34" transform="translate(1301.472656 0)"/>
      <use xlink:href="#DejaVuSans-29" transform="translate(1365.095703 0)"/>
     </g>
    </g>
    <g id="line2d_23">
     <path d="M 140.902597 565.110972 
L 151.102597 565.110972 
L 161.302597 565.110972 
" style="fill: none; stroke-dasharray: 3.7,1.6; stroke-dashoffset: 0; stroke: #ffd24a"/>
     <defs>
      <path id="me53c547b37" d="M 0 4.242641 
L 4.242641 0 
L 0 -4.242641 
L -4.242641 0 
z
" style="stroke: #ffd24a; stroke-linejoin: miter"/>
     </defs>
     <g>
      <use xlink:href="#me53c547b37" x="151.102597" y="565.110972" style="fill: #ffd24a; stroke: #ffd24a; stroke-linejoin: miter"/>
     </g>
    </g>
    <g id="text_13">
     <!-- ~180° sweep — direction ambiguous, set midpoint -->
     <g style="fill: #e6edf3" transform="translate(168.102597 568.085972) scale(0.085 -0.085)">
      <defs>
       <path id="DejaVuSans-7e" d="M 4684 2553 
L 4684 1997 
Q 4356 1750 4076 1644 
Q 3797 1538 3494 1538 
Q 3150 1538 2694 1722 
Q 2659 1734 2644 1741 
Q 2622 1750 2575 1766 
Q 2091 1959 1797 1959 
Q 1522 1959 1253 1839 
Q 984 1719 678 1459 
L 678 2016 
Q 1006 2263 1286 2370 
Q 1566 2478 1869 2478 
Q 2213 2478 2672 2291 
Q 2703 2278 2719 2272 
Q 2744 2263 2788 2247 
Q 3272 2053 3566 2053 
Q 3834 2053 4098 2172 
Q 4363 2291 4684 2553 
z
" transform="scale(0.015625)"/>
      </defs>
      <use xlink:href="#DejaVuSans-7e"/>
      <use xlink:href="#DejaVuSans-31" transform="translate(83.789062 0)"/>
      <use xlink:href="#DejaVuSans-38" transform="translate(147.412109 0)"/>
      <use xlink:href="#DejaVuSans-30" transform="translate(211.035156 0)"/>
      <use xlink:href="#DejaVuSans-b0" transform="translate(274.658203 0)"/>
      <use xlink:href="#DejaVuSans-20" transform="translate(324.658203 0)"/>
      <use xlink:href="#DejaVuSans-73" transform="translate(356.445312 0)"/>
      <use xlink:href="#DejaVuSans-77" transform="translate(408.544922 0)"/>
      <use xlink:href="#DejaVuSans-65" transform="translate(490.332031 0)"/>
      <use xlink:href="#DejaVuSans-65" transform="translate(551.855469 0)"/>
      <use xlink:href="#DejaVuSans-70" transform="translate(613.378906 0)"/>
      <use xlink:href="#DejaVuSans-20" transform="translate(676.855469 0)"/>
      <use xlink:href="#DejaVuSans-2014" transform="translate(708.642578 0)"/>
      <use xlink:href="#DejaVuSans-20" transform="translate(808.642578 0)"/>
      <use xlink:href="#DejaVuSans-64" transform="translate(840.429688 0)"/>
      <use xlink:href="#DejaVuSans-69" transform="translate(903.90625 0)"/>
      <use xlink:href="#DejaVuSans-72" transform="translate(931.689453 0)"/>
      <use xlink:href="#DejaVuSans-65" transform="translate(970.552734 0)"/>
      <use xlink:href="#DejaVuSans-63" transform="translate(1032.076172 0)"/>
      <use xlink:href="#DejaVuSans-74" transform="translate(1087.056641 0)"/>
      <use xlink:href="#DejaVuSans-69" transform="translate(1126.265625 0)"/>
      <use xlink:href="#DejaVuSans-6f" transform="translate(1154.048828 0)"/>
      <use xlink:href="#DejaVuSans-6e" transform="translate(1215.230469 0)"/>
      <use xlink:href="#DejaVuSans-20" transform="translate(1278.609375 0)"/>
      <use xlink:href="#DejaVuSans-61" transform="translate(1310.396484 0)"/>
      <use xlink:href="#DejaVuSans-6d" transform="translate(1371.675781 0)"/>
      <use xlink:href="#DejaVuSans-62" transform="translate(1469.087891 0)"/>
      <use xlink:href="#DejaVuSans-69" transform="translate(1532.564453 0)"/>
      <use xlink:href="#DejaVuSans-67" transform="translate(1560.347656 0)"/>
      <use xlink:href="#DejaVuSans-75" transform="translate(1623.824219 0)"/>
      <use xlink:href="#DejaVuSans-6f" transform="translate(1687.203125 0)"/>
      <use xlink:href="#DejaVuSans-75" transform="translate(1748.384766 0)"/>
      <use xlink:href="#DejaVuSans-73" transform="translate(1811.763672 0)"/>
      <use xlink:href="#DejaVuSans-2c" transform="translate(1863.863281 0)"/>
      <use xlink:href="#DejaVuSans-20" transform="translate(1895.650391 0)"/>
      <use xlink:href="#DejaVuSans-73" transform="translate(1927.4375 0)"/>
      <use xlink:href="#DejaVuSans-65" transform="translate(1979.537109 0)"/>
      <use xlink:href="#DejaVuSans-74" transform="translate(2041.060547 0)"/>
      <use xlink:href="#DejaVuSans-20" transform="translate(2080.269531 0)"/>
      <use xlink:href="#DejaVuSans-6d" transform="translate(2112.056641 0)"/>
      <use xlink:href="#DejaVuSans-69" transform="translate(2209.46875 0)"/>
      <use xlink:href="#DejaVuSans-64" transform="translate(2237.251953 0)"/>
      <use xlink:href="#DejaVuSans-70" transform="translate(2300.728516 0)"/>
      <use xlink:href="#DejaVuSans-6f" transform="translate(2364.205078 0)"/>
      <use xlink:href="#DejaVuSans-69" transform="translate(2425.386719 0)"/>
      <use xlink:href="#DejaVuSans-6e" transform="translate(2453.169922 0)"/>
      <use xlink:href="#DejaVuSans-74" transform="translate(2516.548828 0)"/>
     </g>
    </g>
    <g id="line2d_24">
     <path d="M 140.902597 577.587378 
L 151.102597 577.587378 
L 161.302597 577.587378 
" style="fill: none"/>
     <defs>
      <path id="m84ef7ba1dc" d="M 0 5 
C 1.326016 5 2.597899 4.473168 3.535534 3.535534 
C 4.473168 2.597899 5 1.326016 5 0 
C 5 -1.326016 4.473168 -2.597899 3.535534 -3.535534 
C 2.597899 -4.473168 1.326016 -5 0 -5 
C -1.326016 -5 -2.597899 -4.473168 -3.535534 -3.535534 
C -4.473168 -2.597899 -5 -1.326016 -5 0 
C -5 1.326016 -4.473168 2.597899 -3.535534 3.535534 
C -2.597899 4.473168 -1.326016 5 0 5 
z
" style="stroke: #ff5470"/>
     </defs>
     <g>
      <use xlink:href="#m84ef7ba1dc" x="151.102597" y="577.587378" style="fill-opacity: 0; stroke: #ff5470"/>
     </g>
    </g>
    <g id="text_14">
     <!-- pitch &gt; 80° flag -->
     <g style="fill: #e6edf3" transform="translate(168.102597 580.562378) scale(0.085 -0.085)">
      <defs>
       <path id="DejaVuSans-3e" d="M 678 3150 
L 678 3719 
L 4684 2266 
L 4684 1747 
L 678 294 
L 678 863 
L 3897 2003 
L 678 3150 
z
" transform="scale(0.015625)"/>
      </defs>
      <use xlink:href="#DejaVuSans-70"/>
      <use xlink:href="#DejaVuSans-69" transform="translate(63.476562 0)"/>
      <use xlink:href="#DejaVuSans-74" transform="translate(91.259766 0)"/>
      <use xlink:href="#DejaVuSans-63" transform="translate(130.46875 0)"/>
      <use xlink:href="#DejaVuSans-68" transform="translate(185.449219 0)"/>
      <use xlink:href="#DejaVuSans-20" transform="translate(248.828125 0)"/>
      <use xlink:href="#DejaVuSans-3e" transform="translate(280.615234 0)"/>
      <use xlink:href="#DejaVuSans-20" transform="translate(364.404297 0)"/>
      <use xlink:href="#DejaVuSans-38" transform="translate(396.191406 0)"/>
      <use xlink:href="#DejaVuSans-30" transform="translate(459.814453 0)"/>
      <use xlink:href="#DejaVuSans-b0" transform="translate(523.4375 0)"/>
      <use xlink:href="#DejaVuSans-20" transform="translate(573.4375 0)"/>
      <use xlink:href="#DejaVuSans-66" transform="translate(605.224609 0)"/>
      <use xlink:href="#DejaVuSans-6c" transform="translate(640.429688 0)"/>
      <use xlink:href="#DejaVuSans-61" transform="translate(668.212891 0)"/>
      <use xlink:href="#DejaVuSans-67" transform="translate(729.492188 0)"/>
     </g>
    </g>
    <g id="line2d_25">
     <path d="M 140.902597 590.063784 
L 151.102597 590.063784 
L 161.302597 590.063784 
" style="fill: none; stroke: #9b8cff; stroke-opacity: 0.4; stroke-width: 1.2; stroke-linecap: square"/>
    </g>
    <g id="text_15">
     <!-- astro context arcs (sun / GC) -->
     <g style="fill: #e6edf3" transform="translate(168.102597 593.038784) scale(0.085 -0.085)">
      <defs>
       <path id="DejaVuSans-78" d="M 3513 3500 
L 2247 1797 
L 3578 0 
L 2900 0 
L 1881 1375 
L 863 0 
L 184 0 
L 1544 1831 
L 300 3500 
L 978 3500 
L 1906 2253 
L 2834 3500 
L 3513 3500 
z
" transform="scale(0.015625)"/>
       <path id="DejaVuSans-2f" d="M 1625 4666 
L 2156 4666 
L 531 -594 
L 0 -594 
L 1625 4666 
z
" transform="scale(0.015625)"/>
      </defs>
      <use xlink:href="#DejaVuSans-61"/>
      <use xlink:href="#DejaVuSans-73" transform="translate(61.279297 0)"/>
      <use xlink:href="#DejaVuSans-74" transform="translate(113.378906 0)"/>
      <use xlink:href="#DejaVuSans-72" transform="translate(152.587891 0)"/>
      <use xlink:href="#DejaVuSans-6f" transform="translate(191.451172 0)"/>
      <use xlink:href="#DejaVuSans-20" transform="translate(252.632812 0)"/>
      <use xlink:href="#DejaVuSans-63" transform="translate(284.419922 0)"/>
      <use xlink:href="#DejaVuSans-6f" transform="translate(339.400391 0)"/>
      <use xlink:href="#DejaVuSans-6e" transform="translate(400.582031 0)"/>
      <use xlink:href="#DejaVuSans-74" transform="translate(463.960938 0)"/>
      <use xlink:href="#DejaVuSans-65" transform="translate(503.169922 0)"/>
      <use xlink:href="#DejaVuSans-78" transform="translate(562.943359 0)"/>
      <use xlink:href="#DejaVuSans-74" transform="translate(622.123047 0)"/>
      <use xlink:href="#DejaVuSans-20" transform="translate(661.332031 0)"/>
      <use xlink:href="#DejaVuSans-61" transform="translate(693.119141 0)"/>
      <use xlink:href="#DejaVuSans-72" transform="translate(754.398438 0)"/>
      <use xlink:href="#DejaVuSans-63" transform="translate(793.261719 0)"/>
      <use xlink:href="#DejaVuSans-73" transform="translate(848.242188 0)"/>
      <use xlink:href="#DejaVuSans-20" transform="translate(900.341797 0)"/>
      <use xlink:href="#DejaVuSans-28" transform="translate(932.128906 0)"/>
      <use xlink:href="#DejaVuSans-73" transform="translate(971.142578 0)"/>
      <use xlink:href="#DejaVuSans-75" transform="translate(1023.242188 0)"/>
      <use xlink:href="#DejaVuSans-6e" transform="translate(1086.621094 0)"/>
      <use xlink:href="#DejaVuSans-20" transform="translate(1150 0)"/>
      <use xlink:href="#DejaVuSans-2f" transform="translate(1181.787109 0)"/>
      <use xlink:href="#DejaVuSans-20" transform="translate(1215.478516 0)"/>
      <use xlink:href="#DejaVuSans-47" transform="translate(1247.265625 0)"/>
      <use xlink:href="#DejaVuSans-43" transform="translate(1324.755859 0)"/>
      <use xlink:href="#DejaVuSans-29" transform="translate(1394.580078 0)"/>
     </g>
    </g>
    <g id="line2d_26">
     <path d="M 140.902597 602.540191 
L 151.102597 602.540191 
L 161.302597 602.540191 
" style="fill: none; stroke: #9b8cff; stroke-width: 2.4; stroke-linecap: square"/>
    </g>
    <g id="text_16">
     <!-- astro track (executed sweep; rim = below horizon) -->
     <g style="fill: #e6edf3" transform="translate(168.102597 605.515191) scale(0.085 -0.085)">
      <defs>
       <path id="DejaVuSans-6b" d="M 581 4863 
L 1159 4863 
L 1159 1991 
L 2875 3500 
L 3609 3500 
L 1753 1863 
L 3688 0 
L 2938 0 
L 1159 1709 
L 1159 0 
L 581 0 
L 581 4863 
z
" transform="scale(0.015625)"/>
       <path id="DejaVuSans-3b" d="M 750 3309 
L 1409 3309 
L 1409 2516 
L 750 2516 
L 750 3309 
z
M 750 794 
L 1409 794 
L 1409 256 
L 897 -744 
L 494 -744 
L 750 256 
L 750 794 
z
" transform="scale(0.015625)"/>
       <path id="DejaVuSans-7a" d="M 353 3500 
L 3084 3500 
L 3084 2975 
L 922 459 
L 3084 459 
L 3084 0 
L 275 0 
L 275 525 
L 2438 3041 
L 353 3041 
L 353 3500 
z
" transform="scale(0.015625)"/>
      </defs>
      <use xlink:href="#DejaVuSans-61"/>
      <use xlink:href="#DejaVuSans-73" transform="translate(61.279297 0)"/>
      <use xlink:href="#DejaVuSans-74" transform="translate(113.378906 0)"/>
      <use xlink:href="#DejaVuSans-72" transform="translate(152.587891 0)"/>
      <use xlink:href="#DejaVuSans-6f" transform="translate(191.451172 0)"/>
      <use xlink:href="#DejaVuSans-20" transform="translate(252.632812 0)"/>
      <use xlink:href="#DejaVuSans-74" transform="translate(284.419922 0)"/>
      <use xlink:href="#DejaVuSans-72" transform="translate(323.628906 0)"/>
      <use xlink:href="#DejaVuSans-61" transform="translate(364.742188 0)"/>
      <use xlink:href="#DejaVuSans-63" transform="translate(426.021484 0)"/>
      <use xlink:href="#DejaVuSans-6b" transform="translate(481.001953 0)"/>
      <use xlink:href="#DejaVuSans-20" transform="translate(538.912109 0)"/>
      <use xlink:href="#DejaVuSans-28" transform="translate(570.699219 0)"/>
      <use xlink:href="#DejaVuSans-65" transform="translate(609.712891 0)"/>
      <use xlink:href="#DejaVuSans-78" transform="translate(669.486328 0)"/>
      <use xlink:href="#DejaVuSans-65" transform="translate(725.541016 0)"/>
      <use xlink:href="#DejaVuSans-63" transform="translate(787.064453 0)"/>
      <use xlink:href="#DejaVuSans-75" transform="translate(842.044922 0)"/>
      <use xlink:href="#DejaVuSans-74" transform="translate(905.423828 0)"/>
      <use xlink:href="#DejaVuSans-65" transform="translate(944.632812 0)"/>
      <use xlink:href="#DejaVuSans-64" transform="translate(1006.15625 0)"/>
      <use xlink:href="#DejaVuSans-20" transform="translate(1069.632812 0)"/>
      <use xlink:href="#DejaVuSans-73" transform="translate(1101.419922 0)"/>
      <use xlink:href="#DejaVuSans-77" transform="translate(1153.519531 0)"/>
      <use xlink:href="#DejaVuSans-65" transform="translate(1235.306641 0)"/>
      <use xlink:href="#DejaVuSans-65" transform="translate(1296.830078 0)"/>
      <use xlink:href="#DejaVuSans-70" transform="translate(1358.353516 0)"/>
      <use xlink:href="#DejaVuSans-3b" transform="translate(1421.830078 0)"/>
      <use xlink:href="#DejaVuSans-20" transform="translate(1455.521484 0)"/>
      <use xlink:href="#DejaVuSans-72" transform="translate(1487.308594 0)"/>
      <use xlink:href="#DejaVuSans-69" transform="translate(1528.421875 0)"/>
      <use xlink:href="#DejaVuSans-6d" transform="translate(1556.205078 0)"/>
      <use xlink:href="#DejaVuSans-20" transform="translate(1653.617188 0)"/>
      <use xlink:href="#DejaVuSans-3d" transform="translate(1685.404297 0)"/>
      <use xlink:href="#DejaVuSans-20" transform="translate(1769.193359 0)"/>
      <use xlink:href="#DejaVuSans-62" transform="translate(1800.980469 0)"/>
      <use xlink:href="#DejaVuSans-65" transform="translate(1864.457031 0)"/>
      <use xlink:href="#DejaVuSans-6c" transform="translate(1925.980469 0)"/>
      <use xlink:href="#DejaVuSans-6f" transform="translate(1953.763672 0)"/>
      <use xlink:href="#DejaVuSans-77" transform="translate(2014.945312 0)"/>
      <use xlink:href="#DejaVuSans-20" transform="translate(2096.732422 0)"/>
      <use xlink:href="#DejaVuSans-68" transform="translate(2128.519531 0)"/>
      <use xlink:href="#DejaVuSans-6f" transform="translate(2191.898438 0)"/>
      <use xlink:href="#DejaVuSans-72" transform="translate(2253.080078 0)"/>
      <use xlink:href="#DejaVuSans-69" transform="translate(2294.193359 0)"/>
      <use xlink:href="#DejaVuSans-7a" transform="translate(2321.976562 0)"/>
      <use xlink:href="#DejaVuSans-6f" transform="translate(2374.466797 0)"/>
      <use xlink:href="#DejaVuSans-6e" transform="translate(2435.648438 0)"/>
      <use xlink:href="#DejaVuSans-29" transform="translate(2499.027344 0)"/>
     </g>
    </g>
   </g>
   <g id="patch_6">
    <path d="M 329.394891 277.545948 
Q 329.289108 277.503998 329.183325 277.462048 
" clip-path="url(#p6e1b64ce36)" style="fill: none; opacity: 0.95"/>
    <path d="M 333.654848 282.462596 
L 329.183325 277.462048 
L 335.866677 276.885158 
z
" clip-path="url(#p6e1b64ce36)" style="fill: #9b8cff; opacity: 0.95"/>
   </g>
   <g id="line2d_27">
    <defs>
     <path id="mcbd3511644" d="M 0 4 
C 1.060812 4 2.078319 3.578535 2.828427 2.828427 
C 3.578535 2.078319 4 1.060812 4 0 
C 4 -1.060812 3.578535 -2.078319 2.828427 -2.828427 
C 2.078319 -3.578535 1.060812 -4 0 -4 
C -1.060812 -4 -2.078319 -3.578535 -2.828427 -2.828427 
C -3.578535 -2.078319 -4 -1.060812 -4 0 
C -4 1.060812 -3.578535 2.078319 -2.828427 2.828427 
C -2.078319 3.578535 -1.060812 4 0 4 
z
" style="stroke: #0d1117"/>
    </defs>
    <g clip-path="url(#p6e1b64ce36)">
     <use xlink:href="#mcbd3511644" x="382.327387" y="136.758587" style="fill: #36d399; stroke: #0d1117"/>
    </g>
   </g>
   <g id="text_17">
    <!-- end GP03  22:09 -->
    <g style="fill: #9b8cff" transform="translate(336.183325 270.902282) scale(0.075 -0.075)">
     <defs>
      <path id="DejaVuSans-Bold-65" d="M 4031 1759 
L 4031 1441 
L 1416 1441 
Q 1456 1047 1700 850 
Q 1944 653 2381 653 
Q 2734 653 3104 758 
Q 3475 863 3866 1075 
L 3866 213 
Q 3469 63 3072 -14 
Q 2675 -91 2278 -91 
Q 1328 -91 801 392 
Q 275 875 275 1747 
Q 275 2603 792 3093 
Q 1309 3584 2216 3584 
Q 3041 3584 3536 3087 
Q 4031 2591 4031 1759 
z
M 2881 2131 
Q 2881 2450 2695 2645 
Q 2509 2841 2209 2841 
Q 1884 2841 1681 2658 
Q 1478 2475 1428 2131 
L 2881 2131 
z
" transform="scale(0.015625)"/>
      <path id="DejaVuSans-Bold-6e" d="M 4056 2131 
L 4056 0 
L 2931 0 
L 2931 347 
L 2931 1631 
Q 2931 2084 2911 2256 
Q 2891 2428 2841 2509 
Q 2775 2619 2662 2680 
Q 2550 2741 2406 2741 
Q 2056 2741 1856 2470 
Q 1656 2200 1656 1722 
L 1656 0 
L 538 0 
L 538 3500 
L 1656 3500 
L 1656 2988 
Q 1909 3294 2193 3439 
Q 2478 3584 2822 3584 
Q 3428 3584 3742 3212 
Q 4056 2841 4056 2131 
z
" transform="scale(0.015625)"/>
      <path id="DejaVuSans-Bold-64" d="M 2919 2988 
L 2919 4863 
L 4044 4863 
L 4044 0 
L 2919 0 
L 2919 506 
Q 2688 197 2409 53 
Q 2131 -91 1766 -91 
Q 1119 -91 703 423 
Q 288 938 288 1747 
Q 288 2556 703 3070 
Q 1119 3584 1766 3584 
Q 2128 3584 2408 3439 
Q 2688 3294 2919 2988 
z
M 2181 722 
Q 2541 722 2730 984 
Q 2919 1247 2919 1747 
Q 2919 2247 2730 2509 
Q 2541 2772 2181 2772 
Q 1825 2772 1636 2509 
Q 1447 2247 1447 1747 
Q 1447 1247 1636 984 
Q 1825 722 2181 722 
z
" transform="scale(0.015625)"/>
      <path id="DejaVuSans-Bold-20" transform="scale(0.015625)"/>
      <path id="DejaVuSans-Bold-47" d="M 4781 347 
Q 4331 128 3847 18 
Q 3363 -91 2847 -91 
Q 1681 -91 1000 561 
Q 319 1213 319 2328 
Q 319 3456 1012 4103 
Q 1706 4750 2913 4750 
Q 3378 4750 3804 4662 
Q 4231 4575 4609 4403 
L 4609 3438 
Q 4219 3659 3833 3768 
Q 3447 3878 3059 3878 
Q 2341 3878 1952 3476 
Q 1563 3075 1563 2328 
Q 1563 1588 1938 1184 
Q 2313 781 3003 781 
Q 3191 781 3352 804 
Q 3513 828 3641 878 
L 3641 1784 
L 2906 1784 
L 2906 2591 
L 4781 2591 
L 4781 347 
z
" transform="scale(0.015625)"/>
      <path id="DejaVuSans-Bold-50" d="M 588 4666 
L 2584 4666 
Q 3475 4666 3951 4270 
Q 4428 3875 4428 3144 
Q 4428 2409 3951 2014 
Q 3475 1619 2584 1619 
L 1791 1619 
L 1791 0 
L 588 0 
L 588 4666 
z
M 1791 3794 
L 1791 2491 
L 2456 2491 
Q 2806 2491 2997 2661 
Q 3188 2831 3188 3144 
Q 3188 3456 2997 3625 
Q 2806 3794 2456 3794 
L 1791 3794 
z
" transform="scale(0.015625)"/>
      <path id="DejaVuSans-Bold-30" d="M 2944 2338 
Q 2944 3213 2780 3570 
Q 2616 3928 2228 3928 
Q 1841 3928 1675 3570 
Q 1509 3213 1509 2338 
Q 1509 1453 1675 1090 
Q 1841 728 2228 728 
Q 2613 728 2778 1090 
Q 2944 1453 2944 2338 
z
M 4147 2328 
Q 4147 1169 3647 539 
Q 3147 -91 2228 -91 
Q 1306 -91 806 539 
Q 306 1169 306 2328 
Q 306 3491 806 4120 
Q 1306 4750 2228 4750 
Q 3147 4750 3647 4120 
Q 4147 3491 4147 2328 
z
" transform="scale(0.015625)"/>
      <path id="DejaVuSans-Bold-33" d="M 2981 2516 
Q 3453 2394 3698 2092 
Q 3944 1791 3944 1325 
Q 3944 631 3412 270 
Q 2881 -91 1863 -91 
Q 1503 -91 1142 -33 
Q 781 25 428 141 
L 428 1069 
Q 766 900 1098 814 
Q 1431 728 1753 728 
Q 2231 728 2486 893 
Q 2741 1059 2741 1369 
Q 2741 1688 2480 1852 
Q 2219 2016 1709 2016 
L 1228 2016 
L 1228 2791 
L 1734 2791 
Q 2188 2791 2409 2933 
Q 2631 3075 2631 3366 
Q 2631 3634 2415 3781 
Q 2200 3928 1806 3928 
Q 1516 3928 1219 3862 
Q 922 3797 628 3669 
L 628 4550 
Q 984 4650 1334 4700 
Q 1684 4750 2022 4750 
Q 2931 4750 3382 4451 
Q 3834 4153 3834 3553 
Q 3834 3144 3618 2883 
Q 3403 2622 2981 2516 
z
" transform="scale(0.015625)"/>
      <path id="DejaVuSans-Bold-32" d="M 1844 884 
L 3897 884 
L 3897 0 
L 506 0 
L 506 884 
L 2209 2388 
Q 2438 2594 2547 2791 
Q 2656 2988 2656 3200 
Q 2656 3528 2436 3728 
Q 2216 3928 1850 3928 
Q 1569 3928 1234 3808 
Q 900 3688 519 3450 
L 519 4475 
Q 925 4609 1322 4679 
Q 1719 4750 2100 4750 
Q 2938 4750 3402 4381 
Q 3866 4013 3866 3353 
Q 3866 2972 3669 2642 
Q 3472 2313 2841 1759 
L 1844 884 
z
" transform="scale(0.015625)"/>
      <path id="DejaVuSans-Bold-3a" d="M 716 3500 
L 1844 3500 
L 1844 2291 
L 716 2291 
L 716 3500 
z
M 716 1209 
L 1844 1209 
L 1844 0 
L 716 0 
L 716 1209 
z
" transform="scale(0.015625)"/>
      <path id="DejaVuSans-Bold-39" d="M 641 103 
L 641 966 
Q 928 831 1190 764 
Q 1453 697 1709 697 
Q 2247 697 2547 995 
Q 2847 1294 2900 1881 
Q 2688 1725 2447 1647 
Q 2206 1569 1925 1569 
Q 1209 1569 770 1986 
Q 331 2403 331 3084 
Q 331 3838 820 4291 
Q 1309 4744 2131 4744 
Q 3044 4744 3544 4128 
Q 4044 3513 4044 2388 
Q 4044 1231 3459 570 
Q 2875 -91 1856 -91 
Q 1528 -91 1228 -42 
Q 928 6 641 103 
z
M 2125 2350 
Q 2441 2350 2600 2554 
Q 2759 2759 2759 3169 
Q 2759 3575 2600 3781 
Q 2441 3988 2125 3988 
Q 1809 3988 1650 3781 
Q 1491 3575 1491 3169 
Q 1491 2759 1650 2554 
Q 1809 2350 2125 2350 
z
" transform="scale(0.015625)"/>
     </defs>
     <use xlink:href="#DejaVuSans-Bold-65"/>
     <use xlink:href="#DejaVuSans-Bold-6e" transform="translate(67.822266 0)"/>
     <use xlink:href="#DejaVuSans-Bold-64" transform="translate(139.013672 0)"/>
     <use xlink:href="#DejaVuSans-Bold-20" transform="translate(210.595703 0)"/>
     <use xlink:href="#DejaVuSans-Bold-47" transform="translate(245.410156 0)"/>
     <use xlink:href="#DejaVuSans-Bold-50" transform="translate(327.490234 0)"/>
     <use xlink:href="#DejaVuSans-Bold-30" transform="translate(400.78125 0)"/>
     <use xlink:href="#DejaVuSans-Bold-33" transform="translate(470.361328 0)"/>
     <use xlink:href="#DejaVuSans-Bold-20" transform="translate(539.941406 0)"/>
     <use xlink:href="#DejaVuSans-Bold-20" transform="translate(574.755859 0)"/>
     <use xlink:href="#DejaVuSans-Bold-32" transform="translate(609.570312 0)"/>
     <use xlink:href="#DejaVuSans-Bold-32" transform="translate(679.150391 0)"/>
     <use xlink:href="#DejaVuSans-Bold-3a" transform="translate(748.730469 0)"/>
     <use xlink:href="#DejaVuSans-Bold-30" transform="translate(788.720703 0)"/>
     <use xlink:href="#DejaVuSans-Bold-39" transform="translate(858.300781 0)"/>
    </g>
   </g>
   <g id="text_18">
    <!-- GP01  0°p -->
    <g style="fill: #36d399" transform="translate(390.327387 138.966087) scale(0.08 -0.08)">
     <use xlink:href="#DejaVuSans-47"/>
     <use xlink:href="#DejaVuSans-50" transform="translate(77.490234 0)"/>
     <use xlink:href="#DejaVuSans-30" transform="translate(137.792969 0)"/>
     <use xlink:href="#DejaVuSans-31" transform="translate(201.416016 0)"/>
     <use xlink:href="#DejaVuSans-20" transform="translate(265.039062 0)"/>
     <use xlink:href="#DejaVuSans-20" transform="translate(296.826172 0)"/>
     <use xlink:href="#DejaVuSans-30" transform="translate(328.613281 0)"/>
     <use xlink:href="#DejaVuSans-b0" transform="translate(392.236328 0)"/>
     <use xlink:href="#DejaVuSans-70" transform="translate(442.236328 0)"/>
    </g>
   </g>
   <g id="line2d_28">
    <defs>
     <path id="m5db79d6c7e" d="M 0 7.5 
C 1.989023 7.5 3.896849 6.709753 5.303301 5.303301 
C 6.709753 3.896849 7.5 1.989023 7.5 0 
C 7.5 -1.989023 6.709753 -3.896849 5.303301 -5.303301 
C 3.896849 -6.709753 1.989023 -7.5 0 -7.5 
C -1.989023 -7.5 -3.896849 -6.709753 -5.303301 -5.303301 
C -6.709753 -3.896849 -7.5 -1.989023 -7.5 0 
C -7.5 1.989023 -6.709753 3.896849 -5.303301 5.303301 
C -3.896849 6.709753 -1.989023 7.5 0 7.5 
z
" style="stroke: #0d1117; stroke-width: 1.5"/>
    </defs>
    <g clip-path="url(#p6e1b64ce36)">
     <use xlink:href="#m5db79d6c7e" x="382.327387" y="136.758587" style="fill: #36d399; stroke: #0d1117; stroke-width: 1.5"/>
    </g>
   </g>
   <g id="line2d_29">
    <defs>
     <path id="m6ff0e1d8af" d="M 0 7.5 
C 1.989023 7.5 3.896849 6.709753 5.303301 5.303301 
C 6.709753 3.896849 7.5 1.989023 7.5 0 
C 7.5 -1.989023 6.709753 -3.896849 5.303301 -5.303301 
C 3.896849 -6.709753 1.989023 -7.5 0 -7.5 
C -1.989023 -7.5 -3.896849 -6.709753 -5.303301 -5.303301 
C -6.709753 -3.896849 -7.5 -1.989023 -7.5 0 
C -7.5 1.989023 -6.709753 3.896849 -5.303301 5.303301 
C -3.896849 6.709753 -1.989023 7.5 0 7.5 
z
" style="stroke: #0d1117; stroke-width: 1.5"/>
    </defs>
    <g clip-path="url(#p6e1b64ce36)">
     <use xlink:href="#m6ff0e1d8af" x="375.734553" y="306.520221" style="fill: #9b8cff; stroke: #0d1117; stroke-width: 1.5"/>
    </g>
   </g>
   <g id="text_19">
    <!-- GP02 track 104°→89° -->
    <g style="fill: #9b8cff" transform="translate(425.928834 330.943003) scale(0.075 -0.075)">
     <defs>
      <path id="DejaVuSans-39" d="M 703 97 
L 703 672 
Q 941 559 1184 500 
Q 1428 441 1663 441 
Q 2288 441 2617 861 
Q 2947 1281 2994 2138 
Q 2813 1869 2534 1725 
Q 2256 1581 1919 1581 
Q 1219 1581 811 2004 
Q 403 2428 403 3163 
Q 403 3881 828 4315 
Q 1253 4750 1959 4750 
Q 2769 4750 3195 4129 
Q 3622 3509 3622 2328 
Q 3622 1225 3098 567 
Q 2575 -91 1691 -91 
Q 1453 -91 1209 -44 
Q 966 3 703 97 
z
M 1959 2075 
Q 2384 2075 2632 2365 
Q 2881 2656 2881 3163 
Q 2881 3666 2632 3958 
Q 2384 4250 1959 4250 
Q 1534 4250 1286 3958 
Q 1038 3666 1038 3163 
Q 1038 2656 1286 2365 
Q 1534 2075 1959 2075 
z
" transform="scale(0.015625)"/>
     </defs>
     <use xlink:href="#DejaVuSans-47"/>
     <use xlink:href="#DejaVuSans-50" transform="translate(77.490234 0)"/>
     <use xlink:href="#DejaVuSans-30" transform="translate(137.792969 0)"/>
     <use xlink:href="#DejaVuSans-32" transform="translate(201.416016 0)"/>
     <use xlink:href="#DejaVuSans-20" transform="translate(265.039062 0)"/>
     <use xlink:href="#DejaVuSans-74" transform="translate(296.826172 0)"/>
     <use xlink:href="#DejaVuSans-72" transform="translate(336.035156 0)"/>
     <use xlink:href="#DejaVuSans-61" transform="translate(377.148438 0)"/>
     <use xlink:href="#DejaVuSans-63" transform="translate(438.427734 0)"/>
     <use xlink:href="#DejaVuSans-6b" transform="translate(493.408203 0)"/>
     <use xlink:href="#DejaVuSans-20" transform="translate(551.318359 0)"/>
     <use xlink:href="#DejaVuSans-31" transform="translate(583.105469 0)"/>
     <use xlink:href="#DejaVuSans-30" transform="translate(646.728516 0)"/>
     <use xlink:href="#DejaVuSans-34" transform="translate(710.351562 0)"/>
     <use xlink:href="#DejaVuSans-b0" transform="translate(773.974609 0)"/>
     <use xlink:href="#DejaVuSans-2192" transform="translate(823.974609 0)"/>
     <use xlink:href="#DejaVuSans-38" transform="translate(907.763672 0)"/>
     <use xlink:href="#DejaVuSans-39" transform="translate(971.386719 0)"/>
     <use xlink:href="#DejaVuSans-b0" transform="translate(1035.009766 0)"/>
    </g>
   </g>
   <g id="text_20">
    <!-- 1 -->
    <g style="fill: #0d1117" transform="translate(379.196371 139.242025) scale(0.09 -0.09)">
     <defs>
      <path id="DejaVuSans-Bold-31" d="M 750 831 
L 1813 831 
L 1813 3847 
L 722 3622 
L 722 4441 
L 1806 4666 
L 2950 4666 
L 2950 831 
L 4013 831 
L 4013 0 
L 750 0 
L 750 831 
z
" transform="scale(0.015625)"/>
     </defs>
     <use xlink:href="#DejaVuSans-Bold-31"/>
    </g>
   </g>
   <g id="text_21">
    <!-- 2 -->
    <g style="fill: #0d1117" transform="translate(372.603538 309.003658) scale(0.09 -0.09)">
     <use xlink:href="#DejaVuSans-Bold-32"/>
    </g>
   </g>
  </g>
 </g>
 <defs>
  <clipPath id="p6e1b64ce36">
   <rect x="7.2" y="30.318125" width="511.843944" height="526.68"/>
  </clipPath>
 </defs>
</svg>
